<svg width="221" height="89" viewBox="0 0 221 89" fill="none" xmlns="http://www.w3.org/2000/svg">
<g filter="url(#filter0_d_2_15)">
<path d="M93.1831 66.73C90.8031 66.73 88.8431 66.6483 87.3031 66.485C85.7631 66.3217 84.5498 65.995 83.6631 65.505C82.7998 65.015 82.1931 64.2917 81.8431 63.335C81.4931 62.4017 81.3181 61.1767 81.3181 59.66C81.3181 58.7733 81.3531 57.8633 81.4231 56.93C81.5165 55.9967 81.6448 55.0983 81.8081 54.235C81.9715 53.3483 82.1698 52.555 82.4031 51.855L85.7631 52.415C85.4598 53.5583 85.2148 54.6667 85.0281 55.74C84.8415 56.8133 84.7481 57.84 84.7481 58.82C84.7481 59.66 84.7715 60.395 84.8181 61.025C84.8881 61.655 84.9931 62.2733 85.1331 62.88H95.0381C96.9748 62.88 98.4798 62.8217 99.5531 62.705C100.65 62.6117 101.42 62.425 101.863 62.145C102.33 61.8883 102.563 61.515 102.563 61.025V57H105.993V59.52C105.993 60.92 105.806 62.075 105.433 62.985C105.083 63.9183 104.441 64.665 103.508 65.225C102.575 65.785 101.268 66.17 99.5881 66.38C97.9315 66.6133 95.7965 66.73 93.1831 66.73ZM101.198 57C100.008 57 98.7365 56.9067 97.3831 56.72C96.0531 56.51 94.8865 56.2417 93.8831 55.915L94.4431 52.275C95.5398 52.555 96.5898 52.765 97.5931 52.905C98.5965 53.045 99.5415 53.115 100.428 53.115H109.948V57H101.198ZM91.3631 72.89C91.1065 72.89 90.8031 72.7617 90.4531 72.505C90.1031 72.2717 89.7998 71.98 89.5431 71.63C89.3098 71.28 89.1931 70.9767 89.1931 70.72C89.1931 70.44 89.3098 70.125 89.5431 69.775C89.7998 69.4483 90.0915 69.1567 90.4181 68.9C90.7681 68.6667 91.0831 68.55 91.3631 68.55C91.6431 68.55 91.9465 68.6667 92.2731 68.9C92.5998 69.1567 92.8915 69.4483 93.1481 69.775C93.4048 70.125 93.5331 70.44 93.5331 70.72C93.5331 70.9767 93.4048 71.2683 93.1481 71.595C92.8915 71.945 92.5881 72.2483 92.2381 72.505C91.9115 72.7617 91.6198 72.89 91.3631 72.89ZM96.7881 72.89C96.5315 72.89 96.2281 72.7617 95.8781 72.505C95.5281 72.2717 95.2248 71.98 94.9681 71.63C94.7348 71.28 94.6181 70.9767 94.6181 70.72C94.6181 70.44 94.7348 70.125 94.9681 69.775C95.2248 69.4483 95.5165 69.1567 95.8431 68.9C96.1931 68.6667 96.5081 68.55 96.7881 68.55C97.0681 68.55 97.3715 68.6667 97.6981 68.9C98.0248 69.1567 98.3165 69.4483 98.5731 69.775C98.8298 70.125 98.9581 70.44 98.9581 70.72C98.9581 70.9767 98.8298 71.2683 98.5731 71.595C98.3165 71.945 98.0131 72.2483 97.6631 72.505C97.3365 72.7617 97.0448 72.89 96.7881 72.89ZM108.556 57V53.115H114.086V40.55H117.516V57H108.556ZM113.106 36.385C112.849 36.385 112.546 36.2683 112.196 36.035C111.846 35.7783 111.542 35.475 111.286 35.125C111.052 34.775 110.936 34.4717 110.936 34.215C110.936 33.935 111.052 33.6317 111.286 33.305C111.542 32.955 111.834 32.6633 112.161 32.43C112.511 32.1733 112.826 32.045 113.106 32.045C113.386 32.045 113.689 32.1733 114.016 32.43C114.342 32.6633 114.634 32.955 114.891 33.305C115.147 33.6317 115.276 33.935 115.276 34.215C115.276 34.4717 115.147 34.775 114.891 35.125C114.634 35.4517 114.331 35.7433 113.981 36C113.654 36.2567 113.362 36.385 113.106 36.385ZM118.531 36.385C118.274 36.385 117.971 36.2683 117.621 36.035C117.271 35.7783 116.967 35.475 116.711 35.125C116.477 34.775 116.361 34.4717 116.361 34.215C116.361 33.935 116.477 33.6317 116.711 33.305C116.967 32.955 117.259 32.6633 117.586 32.43C117.936 32.1733 118.251 32.045 118.531 32.045C118.811 32.045 119.114 32.1733 119.441 32.43C119.767 32.6633 120.059 32.955 120.316 33.305C120.572 33.6317 120.701 33.935 120.701 34.215C120.701 34.4717 120.572 34.775 120.316 35.125C120.059 35.4517 119.756 35.7433 119.406 36C119.079 36.2567 118.787 36.385 118.531 36.385ZM124.029 57V34.95H127.459V53.115H131.449V57H124.029ZM130.055 53.115H135.515C135.375 52.4383 135.27 51.68 135.2 50.84C135.13 50 135.095 48.915 135.095 47.585C135.095 46.1617 135.211 44.9833 135.445 44.05C135.701 43.0933 136.121 42.335 136.705 41.775C137.288 41.215 138.07 40.8067 139.05 40.55C140.053 40.2933 141.313 40.165 142.83 40.165C144.23 40.165 145.501 40.2583 146.645 40.445C147.788 40.6083 149.036 40.9 150.39 41.32V57H130.055V53.115ZM145.42 53.115C146.003 53.115 146.4 52.9983 146.61 52.765C146.843 52.5317 146.96 52.1 146.96 51.47V44.085H140.31C139.703 44.085 139.283 44.2133 139.05 44.47C138.84 44.7033 138.735 45.17 138.735 45.87V53.115H145.42ZM140.135 36.385C139.878 36.385 139.575 36.2683 139.225 36.035C138.875 35.7783 138.571 35.475 138.315 35.125C138.081 34.775 137.965 34.4717 137.965 34.215C137.965 33.935 138.081 33.6317 138.315 33.305C138.571 32.955 138.863 32.6633 139.19 32.43C139.54 32.1733 139.855 32.045 140.135 32.045C140.415 32.045 140.718 32.1733 141.045 32.43C141.371 32.6633 141.663 32.955 141.92 33.305C142.176 33.6317 142.305 33.935 142.305 34.215C142.305 34.4717 142.176 34.775 141.92 35.125C141.663 35.4517 141.36 35.7433 141.01 36C140.683 36.2567 140.391 36.385 140.135 36.385ZM145.56 36.385C145.303 36.385 145 36.2683 144.65 36.035C144.3 35.7783 143.996 35.475 143.74 35.125C143.506 34.775 143.39 34.4717 143.39 34.215C143.39 33.935 143.506 33.6317 143.74 33.305C143.996 32.955 144.288 32.6633 144.615 32.43C144.965 32.1733 145.28 32.045 145.56 32.045C145.84 32.045 146.143 32.1733 146.47 32.43C146.796 32.6633 147.088 32.955 147.345 33.305C147.601 33.6317 147.73 33.935 147.73 34.215C147.73 34.4717 147.601 34.775 147.345 35.125C147.088 35.4517 146.785 35.7433 146.435 36C146.108 36.2567 145.816 36.385 145.56 36.385ZM156.944 57V34.95H160.374V53.115H164.364V57H156.944ZM193.105 53.115V57H162.97V53.115H193.105ZM185.72 57V44.47C184.903 44.2133 183.573 44.085 181.73 44.085C178.44 44.085 175.978 44.9483 174.345 46.675C172.735 48.3783 171.93 51.0033 171.93 54.55H168.5V34.95H171.93V46.535C172.443 45.205 173.236 44.0733 174.31 43.14C175.383 42.1833 176.678 41.46 178.195 40.97C179.735 40.4567 181.426 40.2 183.27 40.2C184.763 40.2 185.93 40.3517 186.77 40.655C187.633 40.935 188.24 41.425 188.59 42.125C188.963 42.8017 189.15 43.7467 189.15 44.96V57H185.72ZM191.715 57V53.115H197.245V40.55H200.675V57H191.715ZM198.96 64.14C198.703 64.14 198.4 64.0117 198.05 63.755C197.7 63.5217 197.396 63.23 197.14 62.88C196.906 62.53 196.79 62.2267 196.79 61.97C196.79 61.69 196.906 61.375 197.14 61.025C197.396 60.6983 197.688 60.4067 198.015 60.15C198.365 59.9167 198.68 59.8 198.96 59.8C199.24 59.8 199.543 59.9167 199.87 60.15C200.196 60.4067 200.488 60.6983 200.745 61.025C201.001 61.375 201.13 61.69 201.13 61.97C201.13 62.2267 201.001 62.5183 200.745 62.845C200.488 63.195 200.185 63.4983 199.835 63.755C199.508 64.0117 199.216 64.14 198.96 64.14Z" fill="#4D4D4D"/>
</g>
<rect x="71.089" y="13.5966" width="2.42349" height="71.1208" fill="#4D4D4D"/>
<path d="M61.1393 49.6254H55.7049L56.4458 48.862C57.4891 47.7855 57.4889 46.0345 56.4453 44.9591L44.0426 32.1824C43.7944 31.9259 43.4993 31.7226 43.1742 31.5843C42.8492 31.4461 42.5007 31.3755 42.1489 31.3768C41.7972 31.3755 41.4487 31.446 41.1237 31.5843C40.7987 31.7226 40.5036 31.9259 40.2555 32.1824L19.7288 53.3289C19.4792 53.5849 19.2814 53.8892 19.1469 54.2243C19.0124 54.5594 18.9438 54.9186 18.9452 55.2811C18.9452 56.02 19.2237 56.7128 19.7285 57.2318L29.4301 67.2263V70.4537C29.4301 71.9748 30.6316 73.2126 32.1082 73.2126H61.1393C62.6165 73.2126 63.8185 71.9748 63.8185 70.4537V52.3846C63.8185 50.8632 62.6165 49.6254 61.1393 49.6254V49.6254ZM62.2533 52.3849V55.6478H30.9954V52.3849C30.9954 52.0811 31.1126 51.7897 31.3213 51.5747C31.5299 51.3597 31.8129 51.2386 32.1082 51.238H61.1393C61.4348 51.2385 61.718 51.3595 61.9268 51.5745C62.1357 51.7895 62.2531 52.0809 62.2533 52.3849V52.3849ZM30.9954 57.2604H62.2533V61.8346H30.9954V57.2604ZM20.8349 56.0913C20.7314 55.9851 20.6494 55.8587 20.5937 55.7197C20.538 55.5806 20.5097 55.4315 20.5104 55.2811C20.5104 54.9732 20.6257 54.6853 20.8352 54.4692L41.3622 33.3227C41.4654 33.2164 41.5881 33.1322 41.7231 33.075C41.8582 33.0178 42.0029 32.9887 42.1489 32.9894C42.4476 32.9894 42.7275 33.1077 42.9362 33.3227L55.3386 46.0994C55.547 46.3151 55.664 46.6069 55.664 46.911C55.664 47.2151 55.547 47.5069 55.3386 47.7226L53.4915 49.6254H32.1082C30.6316 49.6254 29.4301 50.8632 29.4301 52.3849V64.9461L20.8349 56.0913V56.0913ZM61.1393 71.6003H32.1082C31.813 71.5999 31.5299 71.4789 31.3213 71.264C31.1127 71.0491 30.9954 70.7578 30.9954 70.454V63.4472H62.2533V70.454C62.2531 70.7579 62.1356 71.0493 61.9268 71.2642C61.7179 71.4791 61.4347 71.6 61.1393 71.6003V71.6003Z" fill="#F69400"/>
<path d="M36.6396 67.5591V69.0044H33.2231V67.5591H36.6396Z" fill="#F69400"/>
<path d="M41.7402 67.5591V69.0044H38.3223V67.5591H41.7402Z" fill="#F69400"/>
<defs>
<filter id="filter0_d_2_15" x="77.3332" y="32.045" width="127.781" height="48.8148" filterUnits="userSpaceOnUse" color-interpolation-filters="sRGB">
<feFlood flood-opacity="0" result="BackgroundImageFix"/>
<feColorMatrix in="SourceAlpha" type="matrix" values="0 0 0 0 0 0 0 0 0 0 0 0 0 0 0 0 0 0 127 0" result="hardAlpha"/>
<feOffset dy="3.98492"/>
<feGaussianBlur stdDeviation="1.99246"/>
<feComposite in2="hardAlpha" operator="out"/>
<feColorMatrix type="matrix" values="0 0 0 0 0 0 0 0 0 0 0 0 0 0 0 0 0 0 0.25 0"/>
<feBlend mode="normal" in2="BackgroundImageFix" result="effect1_dropShadow_2_15"/>
<feBlend mode="normal" in="SourceGraphic" in2="effect1_dropShadow_2_15" result="shape"/>
</filter>
</defs>
</svg>
