<svg width="308" height="238" viewBox="0 0 308 238" fill="none" xmlns="http://www.w3.org/2000/svg">
<rect width="308" height="238" fill="white"/>
<path d="M258.539 163.608C257.641 174.996 256.717 186.896 255.742 199.385C255.305 205.117 254.844 211.003 254.151 216.864C254.074 217.427 254.022 217.99 253.945 218.553H47.0205C46.8152 217.99 46.6098 217.452 46.4301 216.864C45.5318 214.1 45.0442 211.157 45.1725 208.035C45.5062 200.025 49.9465 192.706 53.1549 185.591C60.5982 169.034 61.8558 151.299 59.3405 135.893C56.9278 121.178 51.2298 108.1 44.7362 96.1748C42.2978 91.6963 39.6798 87.2434 38.6018 82.3554C37.5238 77.5443 38.1141 72.1189 41.4251 68.2802C45.2495 63.8529 51.6661 62.4453 57.4668 61.78C67.4511 60.6283 77.3842 60.7051 87.0092 62.0103C97.0962 63.3666 107.055 66.0793 116.757 65.5931C126.228 65.1068 135.57 60.6284 137.752 52.26C139.266 46.4763 137.162 39.6434 139.626 34.6275C141.423 30.9679 145.452 28.9462 149.738 28.4088C153.973 27.8714 158.491 28.6135 162.905 29.5092C173.403 31.6333 183.773 34.7043 193.937 38.6965C195.451 39.2851 197.017 39.9505 198.274 41.1021C202.355 44.8641 200.482 50.3406 198.916 54.5376C194.861 65.414 196.683 80.6152 204.178 94.4602C205.23 96.4307 206.436 98.4013 208.079 99.8856C210.004 101.626 212.314 102.47 214.521 103.161C220.989 105.157 227.406 106.283 233.771 108.817C240.136 111.351 246.759 115.599 251.43 122.227C259.951 134.255 259.617 149.763 258.539 163.608Z" fill="#FFF6E9"/>
<path d="M261.695 218.937H52.024L51.9213 218.681C51.6903 218.092 51.485 217.529 51.3053 216.966C50.3043 213.87 49.8937 210.901 49.9963 207.907C50.2787 201.381 53.179 195.341 56.0023 189.507C56.6953 188.048 57.4397 186.538 58.0813 185.079C64.883 169.929 67.0903 152.194 64.2927 135.099C62.2136 122.406 57.5423 109.713 49.5856 95.0999C49.3546 94.6648 49.1236 94.2298 48.867 93.7947C46.634 89.7513 44.3497 85.5543 43.323 81.0246C42.0653 75.4201 43.1176 70.0971 46.249 66.4631C50.3043 61.7287 57.183 60.3979 62.7013 59.7581C72.7627 58.5809 82.8496 58.6833 92.6286 60.0141C95.7086 60.4235 98.8143 60.9865 101.817 61.4983C109.004 62.7779 115.806 63.9551 122.607 63.5969C130.769 63.1618 141.113 59.4766 143.474 50.4173C144.142 47.8837 144.09 45.0943 144.065 42.3816C144.013 38.7988 143.962 35.4207 145.399 32.5289C147.119 29.0229 150.943 26.6685 155.923 26.0287C160.235 25.4913 164.932 26.2334 169.372 27.1291C179.921 29.2532 190.496 32.4009 200.788 36.4444C202.431 37.0841 203.996 37.7751 205.305 38.9523C209.746 43.0469 207.513 48.9841 206.05 52.9252C201.943 63.9551 203.971 79.31 211.337 92.9502C212.312 94.7672 213.544 96.8401 215.187 98.3244C217.138 100.09 219.499 100.909 221.552 101.549C224.016 102.317 226.532 102.956 228.97 103.596C232.923 104.62 237.029 105.669 241.033 107.281C246.321 109.38 253.764 113.474 259.051 120.973C267.778 133.308 267.367 149.149 266.264 162.994C265.673 170.518 265.083 178.246 264.441 186.231L263.44 199.129C263.004 204.58 262.542 210.773 261.849 216.813C261.772 217.376 261.721 217.939 261.644 218.502L261.695 218.937ZM52.5373 218.169H261.002C261.053 217.708 261.105 217.273 261.156 216.813C261.849 210.773 262.337 204.605 262.747 199.154L263.748 186.256C264.364 178.272 264.98 170.518 265.571 163.019C266.649 149.277 267.059 133.615 258.487 121.485C253.302 114.14 246.013 110.148 240.802 108.075C236.824 106.488 232.769 105.439 228.816 104.441C226.378 103.801 223.862 103.161 221.373 102.393C219.242 101.728 216.778 100.858 214.725 98.9897C212.98 97.4287 211.722 95.3046 210.695 93.4108C203.226 79.5659 201.199 64.0063 205.357 52.7461C207.128 47.9861 208.539 43.0469 204.818 39.5921C203.611 38.4917 202.174 37.8775 200.557 37.2377C190.316 33.2199 179.767 30.0977 169.269 27.9736C164.906 27.0779 160.286 26.3358 156.077 26.8732C151.38 27.4618 147.761 29.6882 146.144 32.9383C144.809 35.6766 144.835 38.9523 144.886 42.4327C144.912 45.1966 144.963 48.0373 144.27 50.6732C141.806 60.1164 131.103 63.9807 122.684 64.4158C115.78 64.774 108.645 63.5201 101.715 62.2917C98.7117 61.7542 95.606 61.2168 92.5517 60.8074C82.824 59.4766 72.814 59.3999 62.804 60.5515C57.414 61.1657 50.715 62.4708 46.8393 67.0005C43.862 70.4553 42.861 75.5224 44.0673 80.8966C45.0683 85.3239 47.327 89.4442 49.5343 93.462C49.7653 93.8971 50.022 94.3321 50.253 94.7672C58.261 109.457 62.958 122.227 65.0627 134.997C67.886 152.245 65.653 170.134 58.7743 185.412C58.107 186.896 57.3883 188.406 56.6697 189.865C53.8977 195.623 51.023 201.586 50.7406 207.958C50.6123 210.875 51.023 213.742 51.9983 216.736C52.178 217.196 52.332 217.683 52.5373 218.169Z" fill="#FFCB8D"/>
<path d="M39.6807 196.161L40.117 198.976L40.2453 199.846L43.043 217.709H59.983L62.755 199.846L62.832 199.436L63.3453 196.161H39.6807Z" fill="#E89C52"/>
<path d="M39.6807 196.161L44.4033 196.135L46.4823 216.941H42.9146L39.6807 196.161Z" fill="#D18546"/>
<path d="M40.1172 198.976L40.2455 199.846H62.8322V198.976H40.1172Z" fill="#FCC98B"/>
<path d="M52.4372 149.584V149.508C52.4372 149.508 52.4115 149.533 52.3859 149.559C52.3602 149.533 52.3345 149.533 52.3345 149.533V149.61C50.9998 150.915 35.9848 165.912 49.6395 176.788C49.6908 176.814 49.7422 176.839 49.7935 176.865C49.8448 176.89 49.8962 176.89 49.9475 176.865C77.8985 171.465 53.6179 150.557 52.4372 149.584Z" fill="#31A683"/>
<path d="M49.7976 196.315L50.6189 196.008C46.2556 184.696 53.0315 165.656 53.1085 165.451L52.2872 165.17C52.0049 165.963 45.3059 184.722 49.7976 196.315Z" fill="#1C7C5C"/>
<path d="M78.6704 171.517L78.7474 171.466C78.7474 171.466 78.7218 171.466 78.6704 171.466C78.6704 171.44 78.6704 171.414 78.6704 171.414L78.5934 171.466C76.7198 171.286 59.1124 169.93 55.6218 183.545C55.6218 183.596 55.5961 183.647 55.6218 183.673C55.6218 183.724 55.6474 183.749 55.6731 183.775C70.3031 204.632 78.3624 172.924 78.6704 171.517Z" fill="#31A683"/>
<path d="M29.0802 167.984L29.0288 167.908C29.0288 167.908 29.0545 167.908 29.1058 167.933C29.1058 167.908 29.1315 167.882 29.1315 167.882L29.1828 167.959C31.1335 168.471 53.2838 174.715 49.8445 190.684C49.8445 190.735 49.8188 190.786 49.7675 190.838C49.7418 190.889 49.6905 190.914 49.6391 190.914C20.8411 199.897 28.7208 169.29 29.0802 167.984Z" fill="#31A683"/>
<path d="M51.0767 196.186L51.9494 196.135C51.3847 186.436 39.7064 180.934 39.2187 180.703L38.8594 181.497C38.9364 181.548 50.5377 187.024 51.0767 196.186Z" fill="#1C7C5C"/>
<path d="M52.283 196.186L53.1557 196.161C52.899 189.712 54.362 185.156 57.4933 182.623C61.5487 179.347 67.0413 180.652 67.1183 180.678L67.3237 179.833C67.0927 179.782 61.3176 178.4 56.9543 181.957C53.592 184.644 52.0263 189.43 52.283 196.186Z" fill="#1C7C5C"/>
<path d="M182.516 218.476L186.366 212.078C187.444 210.261 189.42 209.161 191.525 209.161H194.066L194.913 207.165C195.862 204.938 198.044 203.48 200.457 203.48H201.663C204.538 203.48 207.027 205.501 207.566 208.317L208.259 211.797C210.98 211.797 213.367 213.614 214.086 216.25L214.676 218.476H182.516Z" fill="#033A2F"/>
<path d="M265.544 191.681C268.726 188.201 268.418 182.724 268.315 181.931C268.059 179.705 267.263 177.401 267.776 175.354C268.11 174.075 269.111 173.179 270.934 171.336C273.064 169.187 273.398 169.391 274.014 168.265C274.886 166.653 275.194 164.299 274.527 161.995C273.68 159.104 271.678 157.517 271.088 157.056C267.854 154.523 263.824 154.779 261.103 156.314C260.282 156.775 257.228 158.464 256.586 162.098C255.919 166.013 258.665 168.624 257.279 172.078C257.125 172.462 257.073 172.462 255.071 174.945C250.477 180.652 250.143 181.394 249.938 182.238C249.091 185.463 250.4 188.431 250.785 189.25C251.299 190.299 252.659 192.731 255.303 193.959C258.973 195.674 263.182 194.241 265.544 191.681Z" fill="#31A683"/>
<path d="M231.639 167.19C230.972 171.976 234.129 175.917 234.616 176.455C236.002 177.964 237.85 179.167 238.543 181.112C238.98 182.341 238.672 183.748 238.261 186.538C237.773 189.813 237.363 189.916 237.517 191.272C237.696 193.217 238.749 195.315 240.571 196.672C242.855 198.361 245.319 198.054 246.012 197.977C249.939 197.516 252.84 194.241 254.046 190.99C254.405 190.018 255.74 186.461 254.226 183.236C252.583 179.781 249.144 179.756 248.297 176.173C248.194 175.764 248.245 175.738 248.399 172.513C248.733 165.22 248.579 164.452 248.297 163.71C247.219 160.844 244.729 159.539 244.01 159.206C243.086 158.771 240.853 157.926 238.235 158.745C234.591 159.871 232.127 163.71 231.639 167.19Z" fill="#31A683"/>
<path d="M251.326 214.689V211.515C251.326 211.234 251.223 182.879 240.032 172.437L240.879 171.516C250.299 180.294 252.147 200.434 252.506 208.317C256.972 195.7 261.644 173.154 261.695 172.924L262.927 173.18C262.875 173.435 257.357 200.025 252.532 211.771L251.326 214.689Z" fill="#1C7C5C"/>
<path d="M266.702 217.759C266.702 211.182 260.234 205.859 252.252 205.859C244.27 205.859 237.802 211.182 237.802 217.759H266.702Z" fill="#033A2F"/>
<path d="M123.689 79.6682H62.5508V142.956H123.689V79.6682Z" fill="#86FCD2"/>
<path d="M127.076 76.1624H59.1621V146.436H127.076V76.1624Z" fill="#FCC98B"/>
<path d="M154.461 76.1624H127.074V146.436H154.461V76.1624Z" fill="#FCC98B"/>
<path d="M149.329 79.6682H130.336V142.956H149.329V79.6682Z" fill="#BBF3FF"/>
<g opacity="0.6">
<g opacity="0.6">
<path opacity="0.6" d="M138.652 79.6682L130.336 118.055L148.38 79.6682H138.652Z" fill="white"/>
</g>
</g>
<g opacity="0.6">
<g opacity="0.6">
<path opacity="0.6" d="M149.329 98.7341L130.336 131.414V142.956L135.315 143.238L149.329 98.7341Z" fill="white"/>
</g>
</g>
<path d="M127.332 76.1624H126.818V146.436H127.332V76.1624Z" fill="#E89C52"/>
<path d="M154.462 76.1624H152.126V146.436H154.462V76.1624Z" fill="#E89C52"/>
<path d="M59.1353 76.1624H31.749V146.436H59.1353V76.1624Z" fill="#FCC98B"/>
<path d="M55.9015 79.6682H36.9082V142.956H55.9015V79.6682Z" fill="#BBF3FF"/>
<g opacity="0.6">
<g opacity="0.6">
<path opacity="0.6" d="M45.2242 79.6682L36.9082 118.055L54.9519 79.6682H45.2242Z" fill="white"/>
</g>
</g>
<g opacity="0.6">
<g opacity="0.6">
<path opacity="0.6" d="M55.8758 98.7339L36.9082 131.414V142.956L41.8875 143.237L55.8758 98.7339Z" fill="white"/>
</g>
</g>
<path d="M59.4176 76.1624H58.9043V146.436H59.4176V76.1624Z" fill="#E89C52"/>
<path d="M34.0847 76.1624H31.749V146.436H34.0847V76.1624Z" fill="#E89C52"/>
<path d="M123.689 79.6682H62.5508V142.956H123.689V79.6682Z" fill="#BBFFE5"/>
<path d="M123.689 79.6682L62.5508 92.4895V79.6682H123.689Z" fill="#51CEA4"/>
<path d="M88.731 121.536V124.991H89.0134V121.536H104.567V121.254H89.0134V113.628H89.0647V113.347H89.0134V108.996H88.731V113.347H73.3054V108.996H73.023V113.347H62.5254V113.628H73.023V121.536H88.731ZM73.331 113.628H88.7567V121.254H73.331V113.628Z" fill="#238766"/>
<path d="M123.688 100.577V100.295H110.187V92.6689H123.688V92.3874H110.187V88.0369H109.905V92.3874H96.9434V92.6689H109.905V100.577H123.688Z" fill="#238766"/>
<path d="M73.1264 99.4766H73.4088V96.0474H88.9628V95.7659H73.4088V88.1396H73.4601V87.8581H73.4088V83.5076H73.1264V87.8581H62.5518V88.1396H73.1264V95.7659H62.5518V96.0474H73.1264V99.4766Z" fill="#238766"/>
<path d="M112.445 130.16C113.036 131.363 113.729 132.975 114.319 134.946C114.499 135.509 114.755 136.456 115.012 137.658C115.32 139.117 115.628 141.088 115.731 143.442C115.525 143.519 115.294 143.621 115.089 143.698L112.984 139.45C113.01 139.475 114.114 132.131 112.445 130.16Z" fill="#31A683"/>
<path d="M95.2248 164.837L92.4785 156.161L102.155 153.116C102.54 152.988 102.976 153.218 103.104 153.602L105.389 160.844C105.517 161.228 105.286 161.663 104.901 161.791L95.2248 164.837Z" fill="#033A2F"/>
<path d="M92.2204 150.761C92.2204 150.761 96.1731 151.862 97.9698 154.421L96.3527 155.137C95.9421 155.316 95.8137 155.854 96.0961 156.212L101.127 162.559C101.127 162.559 100.357 163.838 98.8681 163.915C98.8681 163.915 98.5857 164.657 97.1227 164.811C97.1227 164.811 96.0191 166.116 95.4544 165.655C95.4544 165.655 94.8897 166.244 94.1711 165.86L86.5225 159.795L92.2204 150.761Z" fill="#FEC2A0"/>
<path d="M95.9402 159.934L95.5967 160.202L98.6516 164.09L98.9951 163.822L95.9402 159.934Z" fill="#FB9A77"/>
<path d="M95.0112 161.879L94.6699 162.15L96.8926 164.933L97.2339 164.662L95.0112 161.879Z" fill="#FB9A77"/>
<path d="M93.5539 163.407L93.2363 163.706L95.2785 165.866L95.5961 165.568L93.5539 163.407Z" fill="#FB9A77"/>
<path d="M155.026 121.613L163.265 120.743C163.933 120.666 164.523 121.127 164.626 121.792C164.728 122.406 164.318 123.02 163.702 123.174L161.032 123.865C160.955 123.89 160.955 124.018 161.058 124.018L162.495 123.967C163.009 123.942 163.445 124.3 163.496 124.812C163.573 125.272 163.291 125.707 162.855 125.887L160.545 126.731C160.468 126.757 160.493 126.885 160.57 126.885L162.316 126.833C162.752 126.833 163.163 127.141 163.214 127.601C163.291 128.036 163.009 128.446 162.598 128.574L160.16 129.316C160.083 129.341 160.108 129.469 160.185 129.469L161.546 129.495C161.956 129.495 162.29 129.802 162.341 130.186V130.212C162.418 130.672 162.085 131.107 161.648 131.184C161.238 131.235 160.724 131.312 160.16 131.414C157.542 131.798 154.308 133.718 152.768 135.842L147.301 127.499L151.818 123.199C152.716 122.329 153.82 121.792 155.026 121.613Z" fill="#FEC2A0"/>
<path d="M158.183 124.632L158.106 124.121L161.032 123.66L161.109 124.172L158.183 124.632Z" fill="#FB9A77"/>
<path d="M158.261 127.396L158.184 126.885L160.776 126.449L160.827 126.961L158.261 127.396Z" fill="#FB9A77"/>
<path d="M158.337 129.956L158.26 129.418L160.441 128.983L160.518 129.495L158.337 129.956Z" fill="#FB9A77"/>
<path d="M154.564 127.217L157.105 126.705C157.542 126.629 157.85 126.296 157.901 125.861C157.952 125.426 157.721 125.042 157.311 124.863L154.949 123.839L154.77 124.274L157.131 125.298C157.388 125.4 157.439 125.631 157.439 125.81C157.413 125.989 157.311 126.194 157.028 126.245L154.487 126.757L154.564 127.217Z" fill="#FB9A77"/>
<path d="M154.488 135.586L125.947 146.974C125.844 147.025 125.716 147.051 125.613 147.102C121.661 148.51 117.374 146.974 115.116 143.698C114.551 142.905 113.011 139.45 113.011 139.45C113.037 139.68 113.011 140.807 111.599 142.931H82.3394L94.3257 150.71L87.3444 161.228L66.0667 145.771C65.8614 145.618 65.6817 145.464 65.5021 145.311C62.4734 142.7 61.6521 138.273 63.6284 134.716V134.69L67.5554 127.601L71.4311 120.589C71.5594 120.359 71.7134 120.103 71.8417 119.898C73.8951 116.751 77.4371 114.806 81.2614 114.806H108.545C112.523 114.806 116.245 116.853 118.375 120.205C118.401 120.231 118.401 120.257 118.427 120.282L122.995 127.601L126.306 132.899L149.894 123.839L154.488 135.586Z" fill="#FCC97C"/>
<path d="M100.536 116.187C100.536 118.977 98.2774 121.255 95.454 121.255C92.6564 121.255 90.3721 119.003 90.3721 116.187C90.3721 115.727 90.4234 115.292 90.5517 114.857H100.331C100.459 115.292 100.536 115.727 100.536 116.187Z" fill="#F69400"/>
<path d="M122.969 127.652C119.017 128.215 118.76 132.719 114.294 132.719C109.546 132.719 109.546 127.601 104.772 127.601C100.023 127.601 100.023 132.719 95.2493 132.719C90.501 132.719 90.5009 127.601 85.7269 127.601C80.9786 127.601 80.9786 132.719 76.2046 132.719C71.7386 132.719 71.4563 128.215 67.5293 127.652L71.4049 120.64C71.5333 120.41 71.6873 120.154 71.8156 119.949C72.8936 121.075 74.0742 122.099 76.2046 122.099C80.9529 122.099 80.9529 116.981 85.7269 116.981C90.4753 116.981 90.4753 122.099 95.2493 122.099C99.9976 122.099 99.9976 116.981 104.772 116.981C109.52 116.981 109.52 122.099 114.294 122.099C116.219 122.099 117.374 121.254 118.375 120.256C118.401 120.282 118.401 120.308 118.426 120.333L122.969 127.652Z" fill="#FFBA53"/>
<path d="M81.4135 130.467L81.2596 132.438C81.0029 135.918 83.4925 138.989 86.9319 139.475L111.598 142.956H82.3376L77.2812 139.219L81.4135 130.467Z" fill="#FFBA53"/>
<path d="M82.1842 143.161L76.9482 139.296L82.1072 128.42L82.5692 128.625L77.5899 139.143L82.4922 142.751L82.1842 143.161Z" fill="#F69400"/>
<path d="M113.242 139.527L112.754 139.373C113.37 137.326 113.473 135.125 113.062 133.052C112.729 131.312 112.061 129.7 111.086 128.215L111.522 127.934C112.523 129.469 113.216 131.158 113.55 132.975C113.986 135.151 113.884 137.403 113.242 139.527Z" fill="#F69400"/>
<path d="M91.8697 149.188L85.1523 159.729L85.5856 160.003L92.3029 149.463L91.8697 149.188Z" fill="#F69400"/>
<path d="M147.93 124.699L147.45 124.88L151.923 136.655L152.403 136.474L147.93 124.699Z" fill="#F69400"/>
<path d="M66.7086 141.088C66.7086 142.649 66.2467 144.107 65.4767 145.361C62.448 142.751 61.6267 138.324 63.603 134.767V134.741C65.5023 136.225 66.7086 138.503 66.7086 141.088Z" fill="#F69400"/>
<path d="M125.612 147.102C121.659 148.509 117.373 146.974 115.114 143.698C116.167 143.212 117.322 142.93 118.554 142.93C121.582 142.956 124.226 144.619 125.612 147.102Z" fill="#F69400"/>
<path d="M92.4255 102.317L91.6555 102.189C90.1925 101.933 88.8321 102.905 88.5755 104.364C88.5498 104.441 88.5498 104.518 88.5498 104.594C88.4471 105.823 89.3711 106.898 90.6031 107L92.0661 107.128L91.3731 115.496C91.1935 117.748 92.8618 119.719 95.1205 119.898C97.3791 120.077 99.3555 118.414 99.5351 116.162C99.5608 115.983 99.5608 115.778 99.5351 115.599L99.4324 113.654C99.4324 113.654 104.899 113.935 102.281 101.319L94.7098 98.7595L92.4255 102.317Z" fill="#FEC2A0"/>
<path d="M89.3202 96.5843C89.3202 96.5843 88.2936 91.0309 83.1859 95.9445C78.0782 100.832 82.6725 113.091 78.7969 115.036C78.7969 115.036 87.9342 113.193 86.7278 102.726L89.3202 96.5843Z" fill="#1E1E1E"/>
<path d="M89.8025 100.332C90.809 98.5944 91.0576 96.8589 90.3579 96.4561C89.6582 96.0533 88.2751 97.1357 87.2686 98.8737C86.2622 100.612 86.0135 102.347 86.7133 102.75C87.413 103.153 88.7961 102.071 89.8025 100.332Z" fill="#F47926"/>
<path d="M102.538 102.624C102.435 102.752 102.281 102.829 102.127 102.803C100.587 102.701 99.9969 101.319 99.9969 101.319C97.6099 103.955 94.5299 104.415 93.1439 104.492C92.7845 104.518 92.4509 104.236 92.4253 103.878C92.3996 103.571 92.3226 103.289 92.2199 103.059C91.9632 102.419 91.2959 102.061 90.6286 102.215C89.6019 102.445 88.7806 103.264 88.5753 104.364C88.5496 104.441 88.5496 104.518 88.5496 104.595C88.5496 104.646 88.5496 104.723 88.5496 104.774C88.5496 105.925 89.4222 106.898 90.6029 107L92.0659 107.128L91.8092 110.327C91.0392 109.969 88.7549 106.616 88.0619 105.183C86.5989 102.215 88.5239 97.9152 91.7322 96.2006C94.8122 94.5627 98.0463 95.8679 98.5853 96.0982C102.641 96.175 103.488 101.549 102.538 102.624Z" fill="#1E1E1E"/>
<path d="M89.3744 105.029C89.3744 104.978 89.1434 104.057 89.6824 103.468C90.0417 103.084 90.6321 102.931 91.4534 103.084L91.3764 103.494C90.7091 103.391 90.2471 103.468 89.9904 103.75C89.6054 104.185 89.7851 104.927 89.7851 104.927L89.3744 105.029Z" fill="#FB9A77"/>
<path d="M99.4581 113.628C99.4581 113.628 96.6604 113.807 95.4541 113.296C96.5321 114.524 97.9695 115.317 99.5865 115.599L99.4581 113.628Z" fill="#FB9A77"/>
<path d="M99.5361 108.817L99.3564 108.459L100.871 107.717L99.7671 105.311L100.126 105.158L101.384 107.896L99.5361 108.817Z" fill="#D27563"/>
<path d="M96.0981 103.93L98.5364 103.699C98.7161 103.674 98.8444 103.52 98.8188 103.341C98.8188 103.29 98.7931 103.239 98.7674 103.187L98.7161 103.085C98.5878 102.88 98.3311 102.804 98.1258 102.88L96.0467 103.674C95.9954 103.699 95.9697 103.75 95.9697 103.827C95.9954 103.904 96.0467 103.93 96.0981 103.93Z" fill="#1E1E1E"/>
<path d="M102.951 103.724L100.795 103.57C100.641 103.57 100.513 103.417 100.538 103.289C100.538 103.238 100.564 103.212 100.59 103.161L100.641 103.084C100.744 102.905 100.975 102.828 101.154 102.905L103.002 103.545C103.054 103.57 103.079 103.621 103.054 103.673C103.028 103.698 102.977 103.724 102.951 103.724Z" fill="#1E1E1E"/>
<path d="M100.072 109.892C99.4815 109.892 98.1982 109.867 97.1715 109.611C96.9919 109.559 96.8635 109.764 96.9662 109.892C97.5309 110.685 98.9168 112.144 100.2 110.174C100.303 110.071 100.226 109.892 100.072 109.892Z" fill="#E56655"/>
<path d="M102.025 105.823C102.167 105.823 102.282 105.605 102.282 105.336C102.282 105.068 102.167 104.85 102.025 104.85C101.883 104.85 101.769 105.068 101.769 105.336C101.769 105.605 101.883 105.823 102.025 105.823Z" fill="#1E1E1E"/>
<path d="M98.0194 105.823C98.1611 105.823 98.276 105.605 98.276 105.336C98.276 105.068 98.1611 104.85 98.0194 104.85C97.8776 104.85 97.7627 105.068 97.7627 105.336C97.7627 105.605 97.8776 105.823 98.0194 105.823Z" fill="#1E1E1E"/>
<path d="M93.7854 151.554L89.1397 161.919L87.6768 160.767L93.7854 151.554Z" fill="#FB9A77"/>
<path d="M150.047 124.863L154.821 133.769L154.025 134.434L150.047 124.863Z" fill="#FB9A77"/>
<path d="M211.365 94.9976L215.831 91.3892C215.856 91.3892 216.036 91.3125 216.241 91.4404C216.395 91.5428 216.524 91.7219 216.549 91.9267C215.933 95.0488 214.624 96.7123 213.649 97.8127C212.34 99.2714 210.877 100.602 209.491 101.933C209.337 102.086 209.568 102.394 209.773 102.317C212.468 101.242 214.778 99.5017 216.857 97.4288C216.934 97.352 217.063 97.3776 217.14 97.4544C217.217 97.5312 217.242 97.6591 217.191 97.7359C216.293 99.1946 215.446 100.679 214.47 102.061C211.134 106.821 206.873 110.404 200.97 111.837C196.889 112.809 195.965 112.349 193.141 107.998C192.859 107.563 192.679 107.051 192.551 106.565C191.319 102.24 192.217 98.734 194.168 95.6886C196.119 92.6688 198.865 90.5447 201.919 88.8301C206.103 86.4757 209.619 83.4815 211.621 78.8495C211.647 78.7727 211.724 78.6959 211.801 78.5936C211.904 78.4656 212.135 78.568 212.186 78.7471C212.905 81.6389 212.648 84.0701 212.006 86.3989C211.955 86.6037 212.237 86.834 212.366 86.6548C212.494 86.4757 212.648 86.3222 212.751 86.143C213.11 85.6056 213.444 85.0682 213.726 84.4796C213.957 83.9933 214.162 83.4815 214.393 82.9953C214.445 82.8417 214.676 82.8929 214.753 83.0465C216.19 85.6312 214.522 91.1589 211.262 94.5882C211.211 94.6649 211.211 94.7673 211.262 94.8697L211.365 94.9976Z" fill="#FFA723"/>
<path d="M209.439 102.112C209.439 102.061 209.439 101.984 209.49 101.958C210.902 100.627 212.365 99.3223 213.648 97.838C214.623 96.7376 215.932 95.0741 216.548 91.952C216.523 91.7728 216.42 91.5681 216.24 91.4657C216.215 91.4401 216.189 91.4401 216.163 91.4146C215.701 92.7709 213.802 97.7612 208.694 102.7L209.439 102.112Z" fill="#E58A00"/>
<path d="M204.64 110.583C208.695 108.766 211.852 105.771 214.47 102.061C215.445 100.679 216.292 99.1944 217.191 97.7357C217.242 97.6589 217.216 97.531 217.139 97.4542C217.088 97.403 216.985 97.3774 216.934 97.3774C216.344 98.2987 211.262 106.283 204.64 110.583Z" fill="#B7EDD9"/>
<path d="M214.545 82.8923C214.725 83.8136 215.11 87.678 211.132 94.69L211.234 94.5876C211.234 94.5876 211.234 94.5876 211.234 94.562C214.52 91.1328 216.163 85.605 214.725 83.0203C214.7 82.9691 214.622 82.9179 214.545 82.8923Z" fill="#E58A00"/>
<path d="M211.954 86.3988C212.595 84.07 212.878 81.6388 212.133 78.747C212.108 78.6702 212.056 78.5935 212.005 78.5679L211.62 87.4992L211.979 86.5524C211.954 86.5012 211.954 86.45 211.954 86.3988Z" fill="#E58A00"/>
<rect x="180.26" y="96.229" width="45.6073" height="39.2401" rx="2.56667" fill="#075445"/>
<rect x="176.672" y="96.229" width="45.6073" height="39.2401" rx="2.56667" fill="#0C8C73"/>
<path d="M193.034 113.414V111.382C193.034 110.26 193.944 109.35 195.066 109.35H197.098M193.034 117.478V119.51C193.034 120.632 193.944 121.542 195.066 121.542H197.098M205.226 113.414V111.382C205.226 110.26 204.316 109.35 203.194 109.35H201.162M205.226 117.478V119.51C205.226 120.632 204.316 121.542 203.194 121.542H201.162" stroke="white" stroke-width="1.01597" stroke-linecap="round"/>
<circle cx="199.13" cy="113.414" r="2.03194" stroke="white" stroke-width="1.01597"/>
<path d="M203.194 119.51C203.194 118.014 201.375 117.478 199.13 117.478C196.886 117.478 195.066 118.014 195.066 119.51" stroke="white" stroke-width="1.01597" stroke-linecap="round"/>
<path d="M195.066 113.414H203.194" stroke="white" stroke-width="1.01597" stroke-linecap="round" stroke-linejoin="round"/>
<path d="M236.261 101.549L242.216 99.169C242.242 99.169 242.447 99.1434 242.627 99.3481C242.781 99.5017 242.832 99.7576 242.781 99.9623C241.112 103.084 239.162 104.441 237.776 105.285C235.902 106.437 233.926 107.358 231.975 108.305C231.77 108.407 231.898 108.817 232.129 108.791C235.363 108.535 238.392 107.435 241.292 105.9C241.395 105.848 241.523 105.9 241.575 106.027C241.626 106.155 241.626 106.283 241.549 106.36C240.112 107.614 238.725 108.919 237.237 110.071C232.103 114.063 226.38 116.469 219.629 116.059C214.958 115.778 214.137 114.984 212.546 109.406C212.392 108.843 212.366 108.228 212.391 107.665C212.52 102.649 214.599 99.2201 217.704 96.5842C220.759 93.9995 224.378 92.6432 228.202 91.8242C233.438 90.6982 238.187 88.6509 241.831 84.3516C241.908 84.2748 241.985 84.2236 242.113 84.1212C242.267 84.0189 242.473 84.198 242.447 84.4027C242.268 87.7296 241.189 90.212 239.726 92.4896C239.598 92.6943 239.829 93.0271 240.035 92.8991C240.24 92.7711 240.445 92.6176 240.625 92.464C241.189 92.029 241.703 91.5427 242.216 91.0053C242.627 90.5703 243.012 90.1096 243.422 89.6234C243.525 89.4954 243.756 89.5978 243.807 89.8025C244.5 93.027 240.907 98.3757 236.287 100.96C236.21 101.012 236.159 101.14 236.21 101.267L236.261 101.549Z" fill="#FFA723"/>
<path d="M231.871 108.459C231.871 108.382 231.922 108.331 231.974 108.306C233.899 107.359 235.901 106.412 237.774 105.286C239.16 104.441 241.111 103.085 242.779 99.9627C242.831 99.758 242.754 99.5277 242.625 99.3485C242.6 99.3229 242.574 99.2973 242.548 99.2717C241.624 100.551 237.928 105.26 230.87 108.869L231.871 108.459Z" fill="#E58A00"/>
<path d="M223.966 115.957C228.894 115.343 233.231 113.193 237.235 110.097C238.724 108.945 240.11 107.64 241.547 106.386C241.624 106.309 241.65 106.181 241.573 106.053C241.522 105.976 241.445 105.925 241.368 105.9C240.495 106.693 232.461 113.526 223.966 115.957Z" fill="#E58A00"/>
<path d="M243.654 89.675C243.551 90.7243 242.679 94.9469 236.134 101.114L236.262 101.038C236.262 101.038 236.262 101.038 236.288 101.038C240.908 98.4785 244.501 93.1043 243.808 89.8798C243.782 89.7774 243.731 89.7262 243.654 89.675Z" fill="#E58A00"/>
<path d="M239.751 92.5667C241.214 90.2891 242.292 87.8067 242.472 84.4798C242.472 84.3775 242.446 84.3007 242.369 84.2495L239.032 93.6415L239.725 92.7458C239.7 92.6691 239.7 92.6179 239.751 92.5667Z" fill="#E58A00"/>
<path d="M173.351 150.403L177.638 148.56C177.663 148.56 177.817 148.535 177.946 148.688C178.048 148.816 178.1 148.97 178.074 149.123C176.893 151.452 175.507 152.45 174.506 153.115C173.172 153.986 171.734 154.702 170.323 155.419C170.169 155.495 170.271 155.803 170.451 155.777C172.812 155.521 174.994 154.677 177.099 153.499C177.176 153.448 177.253 153.499 177.304 153.576C177.355 153.653 177.355 153.755 177.278 153.806C176.252 154.753 175.251 155.726 174.198 156.596C170.528 159.59 166.396 161.458 161.468 161.279C158.054 161.151 157.438 160.588 156.18 156.545C156.052 156.135 156.026 155.7 156.026 155.291C156.026 151.631 157.489 149.072 159.697 147.101C161.878 145.157 164.496 144.107 167.294 143.442C171.093 142.521 174.532 140.934 177.124 137.735C177.176 137.684 177.227 137.633 177.33 137.556C177.432 137.479 177.586 137.607 177.586 137.761C177.509 140.192 176.765 142.034 175.738 143.723C175.636 143.877 175.841 144.107 175.969 144.005C176.123 143.903 176.252 143.8 176.406 143.672C176.816 143.34 177.176 142.981 177.535 142.572C177.843 142.239 178.1 141.906 178.382 141.548C178.459 141.446 178.613 141.523 178.664 141.676C179.229 144.005 176.688 147.997 173.377 149.968C173.326 149.993 173.3 150.096 173.326 150.172L173.351 150.403Z" fill="#31A683"/>
<path d="M170.272 155.547C170.272 155.496 170.298 155.445 170.349 155.445C171.735 154.702 173.172 154.011 174.533 153.141C175.534 152.502 176.92 151.478 178.1 149.149C178.126 148.996 178.075 148.816 177.972 148.714C177.946 148.688 177.946 148.688 177.921 148.663C177.279 149.635 174.661 153.116 169.579 155.88L170.272 155.547Z" fill="#27896C"/>
<path d="M164.625 161.151C168.193 160.614 171.35 158.976 174.199 156.622C175.277 155.752 176.252 154.779 177.279 153.832C177.33 153.781 177.356 153.679 177.304 153.602C177.279 153.551 177.202 153.5 177.15 153.5C176.509 154.088 170.785 159.206 164.625 161.151Z" fill="#27896C"/>
<path d="M178.51 141.6C178.459 142.367 177.894 145.464 173.223 150.096L173.325 150.045C176.662 148.074 179.177 144.108 178.613 141.753C178.613 141.676 178.587 141.625 178.51 141.6Z" fill="#27896C"/>
<path d="M175.712 143.775C176.738 142.086 177.483 140.243 177.56 137.812C177.56 137.735 177.534 137.684 177.483 137.633L175.198 144.568L175.686 143.903C175.686 143.852 175.686 143.826 175.712 143.775Z" fill="#27896C"/>
<rect width="37.2536" height="31.5885" rx="2.56667" transform="matrix(0.973258 0.229717 -0.231704 0.972787 159.353 148.152)" fill="#E58A00"/>
<rect width="37.2536" height="31.5885" rx="2.56667" transform="matrix(0.973258 0.229717 -0.231704 0.972787 156.499 147.478)" fill="#FFA723"/>
<g clip-path="url(#clip0_97_3870)">
<path d="M165.522 163.68L165.949 161.889C166.184 160.901 167.177 160.288 168.166 160.522L169.957 160.945M164.669 167.261L164.243 169.051C164.007 170.04 164.618 171.031 165.608 171.264L167.399 171.687M176.27 166.217L176.696 164.426C176.931 163.437 176.32 162.447 175.331 162.213L173.54 161.79M175.417 169.797L174.99 171.588C174.755 172.576 173.762 173.189 172.773 172.955L170.981 172.532" stroke="white" stroke-width="0.920224" stroke-linecap="round"/>
<path d="M166.702 169.316L167.555 165.736C167.594 165.571 167.76 165.469 167.925 165.508L173.298 166.776C173.463 166.815 173.565 166.98 173.526 167.145L172.673 170.726C172.634 170.89 172.468 170.992 172.303 170.954L166.929 169.685C166.765 169.646 166.663 169.481 166.702 169.316Z" stroke="white" stroke-width="0.920224" stroke-linecap="round" stroke-linejoin="round"/>
<path d="M168.821 165.719L169.105 164.525C169.34 163.537 170.333 162.924 171.322 163.158V163.158C172.312 163.391 172.923 164.382 172.687 165.371L172.403 166.565" stroke="white" stroke-width="0.920224" stroke-linecap="round" stroke-linejoin="round"/>
</g>
<path d="M201.843 161.74L206.848 160.921C206.874 160.921 207.028 160.946 207.13 161.126C207.207 161.279 207.233 161.484 207.156 161.637C205.308 163.787 203.563 164.478 202.356 164.913C200.714 165.476 199.02 165.86 197.351 166.27C197.172 166.321 197.197 166.653 197.403 166.679C199.944 167.037 202.485 166.705 205 166.014C205.077 165.988 205.18 166.065 205.205 166.167C205.231 166.269 205.205 166.372 205.128 166.423C203.794 167.14 202.485 167.933 201.15 168.573C196.479 170.774 191.628 171.669 186.469 170.211C182.901 169.187 182.388 168.419 182.131 163.838C182.105 163.378 182.182 162.891 182.311 162.482C183.26 158.618 185.493 156.314 188.342 154.805C191.166 153.32 194.194 152.885 197.3 152.911C201.535 152.936 205.565 152.169 209.158 149.456C209.235 149.405 209.286 149.379 209.415 149.328C209.543 149.277 209.671 149.456 209.62 149.61C208.901 152.143 207.644 153.909 206.129 155.419C206.001 155.547 206.129 155.854 206.309 155.777C206.489 155.7 206.668 155.623 206.848 155.547C207.361 155.291 207.849 155.009 208.337 154.702C208.722 154.446 209.107 154.139 209.492 153.832C209.594 153.755 209.748 153.858 209.748 154.037C209.723 156.647 206.027 160.179 201.997 161.382C201.92 161.407 201.869 161.484 201.894 161.586L201.843 161.74Z" fill="#31A683"/>
<path d="M197.223 166.346C197.249 166.295 197.275 166.27 197.326 166.244C198.994 165.835 200.688 165.451 202.331 164.888C203.563 164.478 205.283 163.762 207.131 161.612C207.208 161.459 207.182 161.254 207.105 161.1C207.079 161.075 207.079 161.049 207.054 161.023C206.104 161.868 202.434 164.888 196.351 166.449L197.223 166.346Z" fill="#27896C"/>
<path d="M189.805 170.799C193.732 171.183 197.479 170.261 201.098 168.521C202.458 167.881 203.767 167.114 205.076 166.371C205.153 166.32 205.179 166.218 205.153 166.115C205.128 166.039 205.076 165.988 205.025 165.962C204.204 166.448 196.812 170.364 189.805 170.799Z" fill="#27896C"/>
<path d="M209.595 153.806C209.338 154.6 207.926 157.722 201.792 161.381L201.92 161.356C205.95 160.153 209.646 156.621 209.672 154.011C209.697 153.909 209.646 153.832 209.595 153.806Z" fill="#27896C"/>
<path d="M206.076 155.367C207.616 153.858 208.874 152.117 209.567 149.558C209.593 149.481 209.567 149.405 209.541 149.354L205.332 156.058L206.025 155.495C206.025 155.444 206.025 155.393 206.076 155.367Z" fill="#27896C"/>
<path d="M168.732 35.7791L171.222 31.7612C171.247 31.7356 171.35 31.6588 171.555 31.6844C171.709 31.71 171.863 31.838 171.915 31.9659C172.3 34.5763 171.735 36.2141 171.298 37.3401C170.682 38.85 169.912 40.2576 169.194 41.6651C169.117 41.8186 169.373 41.9978 169.502 41.8954C171.298 40.3343 172.633 38.3382 173.66 36.1629C173.686 36.0862 173.788 36.0606 173.891 36.1118C173.968 36.1629 174.045 36.2397 174.019 36.3165C173.711 37.6984 173.48 39.0803 173.095 40.4111C171.812 45.0431 169.476 48.9842 165.293 51.6969C162.392 53.5651 161.545 53.4627 158.157 50.8524C157.823 50.5965 157.541 50.2382 157.285 49.9055C155.154 46.8602 154.872 43.9171 155.565 40.9997C156.232 38.1079 157.798 35.7279 159.697 33.5526C162.315 30.584 164.214 27.2827 164.497 23.1369C164.497 23.0601 164.523 22.9834 164.548 22.881C164.6 22.753 164.805 22.7786 164.882 22.9066C166.242 24.9539 166.704 26.8988 166.833 28.895C166.833 29.0741 167.14 29.1509 167.192 28.9973C167.243 28.8182 167.32 28.6647 167.346 28.4855C167.474 27.9737 167.577 27.4619 167.654 26.9244C167.705 26.4894 167.731 26.0287 167.757 25.5681C167.757 25.4401 167.936 25.4146 168.065 25.5169C169.887 27.1292 170.118 31.8892 168.501 35.4464C168.475 35.5232 168.501 35.5999 168.578 35.6511L168.732 35.7791Z" fill="#31A683"/>
<path d="M169.169 41.8186C169.144 41.7674 169.144 41.7162 169.169 41.6906C169.888 40.2831 170.658 38.85 171.274 37.3657C171.736 36.2653 172.275 34.6018 171.89 31.9915C171.813 31.8379 171.685 31.7356 171.531 31.71C171.505 31.71 171.479 31.71 171.454 31.71C171.479 32.8872 171.351 37.2889 168.759 42.5351L169.169 41.8186Z" fill="#27896C"/>
<path d="M167.782 49.7263C170.426 47.2184 172.069 44.0194 173.07 40.4111C173.455 39.0803 173.686 37.6728 173.994 36.3164C174.019 36.2397 173.968 36.1629 173.865 36.1117C173.788 36.0861 173.737 36.0861 173.686 36.1117C173.506 36.9818 171.761 44.5569 167.782 49.7263Z" fill="#27896C"/>
<path d="M167.885 25.4912C168.27 26.1566 169.63 29.0484 168.475 35.5998L168.526 35.4974C170.143 31.9402 169.912 27.1802 168.09 25.568C168.013 25.5168 167.936 25.4912 167.885 25.4912Z" fill="#27896C"/>
<path d="M166.831 28.9204C166.703 26.9242 166.241 24.9793 164.881 22.932C164.829 22.8808 164.778 22.8296 164.727 22.8296L166.883 29.8928L166.908 29.0739C166.857 29.0227 166.831 28.9715 166.831 28.9204Z" fill="#27896C"/>
<rect width="38.0344" height="54.206" rx="2.56667" transform="matrix(0.966397 -0.257054 0.259164 0.965834 151.331 37.7622)" fill="#E68A00"/>
<rect width="38.0344" height="54.206" rx="2.56667" transform="matrix(0.966397 -0.257054 0.259164 0.965834 148.438 38.5327)" fill="#FFA723"/>
<g clip-path="url(#clip1_97_3870)">
<path d="M166.913 59.5933L166.393 57.6537C166.105 56.5825 166.741 55.483 167.813 55.1979L169.754 54.6817M167.954 63.4726L168.474 65.4122C168.762 66.4834 169.864 67.1207 170.936 66.8356L172.876 66.3194M178.558 56.4961L178.037 54.5565C177.75 53.4852 176.648 52.848 175.576 53.1331L173.635 53.6493M179.598 60.3753L180.119 62.3149C180.406 63.3861 179.771 64.4856 178.699 64.7707L176.758 65.2869" stroke="white" stroke-width="1.00411" stroke-linecap="round"/>
<path d="M175.37 60.1146C175.082 59.0433 173.98 58.4061 172.908 58.6912C172.334 58.844 171.884 59.2311 171.635 59.7225" stroke="white" stroke-width="1.00411" stroke-linecap="round"/>
<path d="M177.311 59.5986C177.121 58.892 176.754 58.2798 176.271 57.7971M169.548 61.6634C168.973 59.521 170.245 57.322 172.388 56.7518C173.182 56.5407 173.984 56.5824 174.708 56.8274" stroke="white" stroke-width="1.00411" stroke-linecap="round"/>
<path d="M175.37 60.1147L176.064 62.7009" stroke="white" stroke-width="1.00411" stroke-linecap="round" stroke-linejoin="round"/>
<path d="M177.311 59.5986L178.005 62.1848" stroke="white" stroke-width="1.00411" stroke-linecap="round" stroke-linejoin="round"/>
<path d="M173.429 60.6309L174.123 63.217" stroke="white" stroke-width="1.00411" stroke-linecap="round" stroke-linejoin="round"/>
<path d="M171.749 62.1167L172.183 63.733" stroke="white" stroke-width="1.00411" stroke-linecap="round" stroke-linejoin="round"/>
<path d="M169.548 61.6633L170.242 64.2495" stroke="white" stroke-width="1.00411" stroke-linecap="round" stroke-linejoin="round"/>
</g>
<path d="M197.967 33.1433L202.279 30.4818C202.304 30.4818 202.458 30.4306 202.638 30.5586C202.766 30.6609 202.843 30.8401 202.843 31.0192C201.971 33.7063 200.636 35.0115 199.66 35.8816C198.351 37.0332 196.94 38.0313 195.554 39.0549C195.4 39.1573 195.554 39.4644 195.759 39.4132C198.249 38.7734 200.456 37.4938 202.51 35.8816C202.587 35.8304 202.689 35.856 202.766 35.9327C202.843 36.0095 202.843 36.1375 202.792 36.1887C201.842 37.3659 200.944 38.5687 199.943 39.6947C196.478 43.5078 192.346 46.1949 187.007 46.8091C183.311 47.2186 182.541 46.7323 180.539 42.5865C180.333 42.177 180.231 41.6908 180.18 41.2558C179.589 37.3147 180.744 34.3461 182.798 31.8637C184.825 29.407 187.469 27.8715 190.344 26.6943C194.271 25.082 197.71 22.83 199.969 18.9913C200.02 18.9145 200.071 18.8633 200.148 18.7865C200.251 18.6841 200.431 18.7865 200.456 18.9657C200.79 21.576 200.277 23.6745 199.455 25.6706C199.378 25.8497 199.609 26.0801 199.763 25.9521C199.892 25.8241 200.045 25.6706 200.174 25.5426C200.559 25.1332 200.893 24.6726 201.226 24.1863C201.483 23.8025 201.739 23.3674 201.97 22.9323C202.047 22.8044 202.227 22.8555 202.279 23.0091C203.254 25.4403 201.201 30.1235 197.941 32.7594C197.89 32.8106 197.864 32.913 197.915 32.9897L197.967 33.1433Z" fill="#31A683"/>
<path d="M195.504 39.1574C195.504 39.1062 195.53 39.0551 195.555 39.0295C196.941 38.0058 198.353 37.0077 199.662 35.8561C200.637 35.0116 201.972 33.6809 202.845 30.9938C202.845 30.8146 202.768 30.6355 202.639 30.5331C202.614 30.5075 202.588 30.5075 202.562 30.4819C202.023 31.608 199.79 35.8049 194.76 39.5925L195.504 39.1574Z" fill="#27896C"/>
<path d="M190.371 46.1181C194.144 44.9665 197.25 42.6888 199.945 39.6946C200.946 38.5942 201.87 37.3658 202.794 36.1886C202.845 36.1118 202.845 36.0095 202.768 35.9327C202.717 35.8815 202.64 35.8303 202.588 35.8559C201.998 36.5981 196.685 43.0471 190.371 46.1181Z" fill="#27896C"/>
<path d="M202.125 22.8555C202.177 23.6744 202.1 27.1292 197.813 32.8361L197.916 32.7594C201.176 30.1234 203.229 25.4146 202.254 23.009C202.228 22.9322 202.177 22.8811 202.125 22.8555Z" fill="#27896C"/>
<path d="M199.457 25.6451C200.278 23.6489 200.791 21.5761 200.458 18.9401C200.458 18.8634 200.406 18.8122 200.355 18.761L199.046 26.5664L199.457 25.773C199.431 25.7474 199.431 25.6963 199.457 25.6451Z" fill="#27896C"/>
<path d="M280.177 218.476C280.177 218.937 279.792 219.321 279.33 219.321H34.1878C33.7258 219.321 33.3408 218.937 33.3408 218.476C33.3408 218.016 33.7258 217.632 34.1878 217.632H279.33C279.792 217.632 280.177 218.016 280.177 218.476Z" fill="#033A2F"/>
<defs>
<clipPath id="clip0_97_3870">
<rect width="14.7126" height="14.6914" fill="white" transform="matrix(0.973258 0.229716 -0.231706 0.972786 165.011 157.886)"/>
</clipPath>
<clipPath id="clip1_97_3870">
<rect width="16.0525" height="16.032" fill="white" transform="matrix(0.966399 -0.257047 0.259171 0.965832 163.41 54.2908)"/>
</clipPath>
</defs>
</svg>
