<svg width="308" height="238" viewBox="0 0 308 238" fill="none" xmlns="http://www.w3.org/2000/svg">
<path d="M255.716 160.025C254.818 171.414 253.894 183.314 252.919 195.802C252.482 201.535 252.02 207.421 251.327 213.281C251.25 213.844 251.199 214.407 251.122 214.97H44.2229C44.0176 214.407 43.8122 213.87 43.6326 213.281C42.7342 210.517 42.2466 207.574 42.3749 204.452C42.7086 196.442 47.1489 189.123 50.3572 182.008C57.8006 165.451 59.0582 147.716 56.5429 132.31C54.1302 117.595 48.4322 104.518 41.9386 92.592C39.5002 88.1135 36.8822 83.6606 35.7786 78.7727C34.7006 73.9615 35.2909 68.5361 38.6019 64.6974C42.4262 60.2701 48.8429 58.8626 54.6436 58.1972C64.6279 57.0456 74.5609 57.1224 84.1859 58.4275C94.2729 59.7839 104.232 62.4966 113.934 62.0103C123.405 61.5241 132.747 57.0456 134.929 48.6772C136.443 42.8936 134.339 36.0606 136.803 31.0447C138.599 27.3852 142.629 25.3635 146.915 24.826C151.15 24.2886 155.668 25.0307 160.082 25.9264C170.554 28.0505 180.949 31.1215 191.113 35.1138C192.628 35.7024 194.193 36.3678 195.451 37.5194C199.532 41.2813 197.658 46.7579 196.093 50.9548C192.037 61.8312 193.86 77.0325 201.354 90.8774C202.407 92.848 203.613 94.8185 205.256 96.3028C207.181 98.043 209.491 98.8875 211.698 99.5785C218.166 101.575 224.583 102.701 230.948 105.234C237.313 107.768 243.935 112.016 248.607 118.644C257.128 130.672 256.794 146.18 255.716 160.025Z" fill="#FFF6E9"/>
<path d="M258.873 215.354H49.1763L49.0737 215.098C48.8427 214.509 48.6373 213.946 48.4577 213.383C47.4567 210.287 47.046 207.318 47.1487 204.324C47.431 197.798 50.3313 191.759 53.1547 185.924C53.8477 184.465 54.592 182.955 55.2337 181.496C62.0353 166.346 64.2427 148.611 61.445 131.516C59.366 118.823 54.6947 106.13 46.738 91.5171C46.507 91.082 46.276 90.647 46.0193 90.2119C43.7863 86.1685 41.502 81.9715 40.4753 77.4418C39.2177 71.8373 40.27 66.5143 43.4013 62.8803C47.4567 58.1459 54.3353 56.8152 59.8537 56.1754C69.915 54.9982 80.002 55.1005 89.781 56.4313C92.861 56.8408 95.9667 57.4037 98.9697 57.9156C106.156 59.1951 112.958 60.3724 119.76 60.0141C127.922 59.579 138.265 55.8939 140.627 46.8345C141.294 44.301 141.243 41.5115 141.217 38.7988C141.166 35.216 141.114 31.838 142.552 28.9461C144.271 25.4401 148.096 23.0857 153.075 22.4459C157.387 21.9085 162.084 22.6506 166.524 23.5463C177.073 25.6704 187.648 28.8182 197.94 32.8616C199.583 33.5014 201.149 34.1924 202.458 35.3696C206.898 39.4642 204.665 45.4014 203.202 49.3425C199.095 60.3723 201.123 75.7272 208.489 89.3674C209.465 91.1844 210.697 93.2573 212.339 94.7416C214.29 96.5074 216.651 97.3263 218.705 97.9661C221.169 98.7339 223.684 99.3736 226.122 100.013C230.075 101.037 234.182 102.086 238.186 103.699C243.473 105.797 250.916 109.892 256.204 117.39C264.93 129.725 264.52 145.566 263.416 159.411C262.826 166.935 262.235 174.664 261.594 182.648L260.593 195.546C260.156 200.997 259.694 207.19 259.001 213.23C258.924 213.793 258.873 214.356 258.796 214.919L258.873 215.354ZM49.7153 214.586H258.18C258.231 214.125 258.283 213.69 258.334 213.23C259.027 207.19 259.515 201.023 259.925 195.572L260.926 182.674C261.542 174.689 262.158 166.935 262.749 159.437C263.827 145.694 264.237 130.032 255.665 117.902C250.48 110.557 243.191 106.565 237.98 104.492C234.002 102.905 229.947 101.856 225.994 100.858C223.556 100.218 221.04 99.5784 218.551 98.8106C216.42 98.1453 213.956 97.2751 211.903 95.407C210.158 93.8459 208.9 91.7218 207.873 89.8281C200.404 75.9831 198.377 60.4235 202.535 49.1633C204.306 44.4033 205.717 39.4642 201.996 36.0093C200.789 34.9089 199.352 34.2947 197.735 33.655C187.494 29.6371 176.945 26.5149 166.447 24.3908C162.084 23.4951 157.464 22.753 153.255 23.2904C148.558 23.879 144.939 26.1055 143.322 29.3556C141.987 32.0939 142.013 35.3696 142.064 38.85C142.09 41.6139 142.141 44.4545 141.448 47.0904C138.984 56.5337 128.281 60.3979 119.862 60.833C112.958 61.1913 105.823 59.9373 98.8927 58.7089C95.8897 58.1715 92.784 57.6341 89.7297 57.2246C80.002 55.8939 69.992 55.8171 59.982 56.9687C54.592 57.5829 47.893 58.8881 44.0173 63.4177C41.04 66.8726 40.039 71.9397 41.2453 77.3139C42.2463 81.7412 44.505 85.8614 46.7123 89.8792C46.9433 90.3143 47.2 90.7493 47.431 91.1844C55.439 105.874 60.136 118.644 62.2407 131.414C65.064 148.663 62.831 166.551 55.9523 181.829C55.285 183.313 54.5663 184.823 53.8477 186.282C51.0757 192.04 48.201 198.003 47.9187 204.375C47.7903 207.293 48.201 210.159 49.1763 213.153C49.356 213.614 49.51 214.1 49.7153 214.586Z" fill="#FFCB8D"/>
<path d="M49.9008 170.679C51.1931 170.356 49.695 159.993 46.5548 147.533C43.4147 135.074 39.8215 125.235 38.5293 125.559C37.2371 125.883 38.7351 136.246 41.8752 148.706C45.0154 161.165 48.6086 171.003 49.9008 170.679Z" fill="#31A683"/>
<path d="M52.1712 170.674C53.4694 170.549 53.2545 157.276 51.6914 141.027C50.1282 124.777 47.8087 111.705 46.5106 111.829C45.2125 111.954 45.4273 125.227 46.9905 141.476C48.5536 157.726 50.8731 170.798 52.1712 170.674Z" fill="#31A683"/>
<path d="M54.447 170.695C55.737 170.695 56.7826 155.113 56.7826 135.891C56.7826 116.669 55.737 101.087 54.447 101.087C53.1571 101.087 52.1113 116.669 52.1113 135.891C52.1113 155.113 53.1571 170.695 54.447 170.695Z" fill="#31A683"/>
<path d="M61.8984 141.514C63.4616 125.264 63.6764 111.991 62.3783 111.867C61.0802 111.743 58.7606 124.815 57.1975 141.064C55.6344 157.314 55.4195 170.587 56.7177 170.711C58.0158 170.835 60.3353 157.763 61.8984 141.514Z" fill="#31A683"/>
<path d="M66.9679 148.732C70.1081 136.272 71.6061 125.909 70.3139 125.586C69.0216 125.262 65.4285 135.1 62.2883 147.559C59.1482 160.019 57.6501 170.382 58.9423 170.706C60.2346 171.029 63.8278 161.191 66.9679 148.732Z" fill="#31A683"/>
<path d="M70.3349 190.016C70.3349 198.641 68.2302 207.214 64.0979 214.968H44.7965C38.5852 203.324 36.9425 189.786 40.1765 176.99L44.7965 158.821H64.0979L68.7179 176.99C69.7959 181.29 70.3349 185.666 70.3349 190.016Z" fill="#FCBB75"/>
<path d="M70.3344 190.016C70.3344 198.641 68.2297 207.214 64.0974 214.968H61.1457L61.3255 213.816C62.6858 209.952 63.8664 205.576 64.6878 200.739C67.6394 183.081 63.9947 168.084 60.7607 158.846H64.0974L68.7174 177.016C69.7954 181.29 70.3344 185.666 70.3344 190.016Z" fill="#FCAA59"/>
<path d="M54.4458 208.417C57.3801 208.417 59.7588 200.454 59.7588 190.631C59.7588 180.808 57.3801 172.845 54.4458 172.845C51.5115 172.845 49.1328 180.808 49.1328 190.631C49.1328 200.454 51.5115 208.417 54.4458 208.417Z" fill="#E89C52"/>
<path d="M64.6631 160.535H44.2324V161.533H64.6631V160.535Z" fill="#E89C52"/>
<path d="M77.2988 192.781L77.7351 195.596L77.8635 196.466L80.6611 214.329H97.6011L100.373 196.466L100.45 196.057L100.963 192.781H77.2988Z" fill="#E89C52"/>
<path d="M77.3008 192.78L82.0234 192.754L84.1024 213.56H80.5347L77.3008 192.78Z" fill="#D18546"/>
<path d="M77.7334 195.595L77.8617 196.465H100.448V195.595H77.7334Z" fill="#FCC98B"/>
<path d="M90.0612 146.204V146.127C90.0612 146.127 90.0356 146.153 90.0099 146.178C89.9842 146.153 89.9585 146.153 89.9585 146.153V146.229C88.6238 147.534 73.6088 162.531 87.2635 173.407C87.3148 173.433 87.3662 173.459 87.4175 173.484C87.4689 173.51 87.5202 173.51 87.5716 173.484C115.523 168.084 91.2419 147.176 90.0612 146.204Z" fill="#31A683"/>
<path d="M87.4128 192.934L88.2341 192.627C83.8708 181.315 90.6468 162.275 90.7238 162.071L89.9025 161.789C89.6201 162.582 82.9211 181.341 87.4128 192.934Z" fill="#1C7C5C"/>
<path d="M116.285 168.136L116.362 168.085C116.362 168.085 116.336 168.085 116.285 168.085C116.285 168.06 116.285 168.034 116.285 168.034L116.208 168.085C114.334 167.906 96.7267 166.55 93.236 180.164C93.236 180.215 93.2104 180.267 93.236 180.292C93.236 180.343 93.2617 180.369 93.2873 180.395C107.917 201.252 115.977 169.544 116.285 168.136Z" fill="#31A683"/>
<path d="M66.7022 164.604L66.6509 164.527C66.6509 164.527 66.6765 164.527 66.7279 164.552C66.7279 164.527 66.7536 164.501 66.7536 164.501L66.8049 164.578C68.7555 165.09 90.9059 171.334 87.4665 187.303C87.4665 187.354 87.4409 187.406 87.3895 187.457C87.3639 187.508 87.3125 187.533 87.2612 187.533C58.4632 196.516 66.3429 165.909 66.7022 164.604Z" fill="#31A683"/>
<path d="M88.6959 192.806L89.5685 192.754C89.0038 183.055 77.3256 177.553 76.8379 177.323L76.4785 178.116C76.5555 178.167 88.1569 183.644 88.6959 192.806Z" fill="#1C7C5C"/>
<path d="M89.908 192.806L90.7807 192.78C90.524 186.331 91.987 181.776 95.1183 179.242C99.1737 175.967 104.666 177.272 104.743 177.297L104.949 176.453C104.718 176.402 98.9426 175.02 94.5793 178.577C91.217 181.264 89.6513 186.05 89.908 192.806Z" fill="#1C7C5C"/>
<path d="M273.657 169.571H191.626V213.819H273.657V169.571Z" fill="#E89C52"/>
<path d="M273.657 169.571H229.279V213.819H273.657V169.571Z" fill="#FCC98B"/>
<path d="M257.59 169.571H249.146V176.788H257.59V169.571Z" fill="white"/>
<path d="M204.818 181.292L203.945 181.651L203.535 181.83L197.58 184.389L197.144 184.568L189.623 187.793L189.213 187.972L182.77 190.71L182.36 190.889L180.512 191.682V213.947H130.462L130.641 204.299V203.89L130.898 189.507L130.616 189.43L130.256 189.328L119.964 186.283L119.605 186.18L113.188 184.287L112.829 184.184L108.517 182.905L108.157 182.802L104.692 181.779L113.778 163.506L114.138 162.764L115.113 160.819C118.706 153.577 126.56 149.482 134.594 150.634L149.558 152.809H150.071L151.56 152.835L164.958 153.014L165.882 152.912L166.908 152.784L174.814 151.888C178.715 151.453 182.539 152.093 185.927 153.654C186.03 153.705 186.158 153.756 186.261 153.807C189.469 155.317 192.267 157.646 194.372 160.589C194.474 160.717 194.551 160.845 194.654 160.998C195.219 161.843 195.732 162.713 196.194 163.634L204.818 181.292Z" fill="#FFBA53"/>
<path d="M189.061 183.646C186.776 183.646 185.621 184.695 184.518 185.719C183.44 186.717 182.413 187.664 180.308 187.664C178.229 187.664 177.203 186.717 176.099 185.719C174.995 184.695 173.84 183.646 171.556 183.646C169.272 183.646 168.117 184.695 167.013 185.719C165.935 186.717 164.908 187.664 162.804 187.664C160.725 187.664 159.698 186.717 158.594 185.719C157.491 184.695 156.336 183.646 154.051 183.646C151.767 183.646 150.612 184.695 149.508 185.719C148.43 186.717 147.404 187.664 145.299 187.664C143.22 187.664 142.193 186.717 141.09 185.719C139.986 184.695 138.831 183.646 136.547 183.646C134.262 183.646 133.107 184.695 132.004 185.719C130.926 186.717 129.899 187.664 127.794 187.664C125.715 187.664 124.689 186.717 123.585 185.719C122.481 184.695 121.326 183.646 119.042 183.646C117.348 183.646 116.296 184.235 115.397 184.926L115.988 185.105C116.758 184.542 117.656 184.132 119.016 184.132C121.095 184.132 122.122 185.079 123.226 186.077C124.329 187.101 125.484 188.15 127.769 188.15C130.053 188.15 131.208 187.101 132.312 186.077C133.39 185.079 134.416 184.132 136.521 184.132C138.626 184.132 139.627 185.079 140.73 186.077C141.834 187.101 142.989 188.15 145.273 188.15C147.558 188.15 148.713 187.101 149.816 186.077C150.894 185.079 151.921 184.132 154.026 184.132C156.105 184.132 157.131 185.079 158.235 186.077C159.339 187.101 160.494 188.15 162.778 188.15C165.062 188.15 166.217 187.101 167.321 186.077C168.399 185.079 169.426 184.132 171.53 184.132C173.609 184.132 174.636 185.079 175.74 186.077C176.843 187.101 177.998 188.15 180.283 188.15C182.567 188.15 183.722 187.101 184.826 186.077C185.904 185.079 186.93 184.132 189.035 184.132C191.114 184.132 192.141 185.079 193.244 186.077C193.27 186.103 193.321 186.129 193.347 186.18L193.86 185.949C193.783 185.873 193.681 185.796 193.604 185.694C192.5 184.721 191.345 183.646 189.061 183.646Z" fill="#FCC97C"/>
<path d="M176.123 192.118C175.02 191.094 173.865 190.045 171.58 190.045C169.296 190.045 168.141 191.094 167.037 192.118C165.959 193.116 164.933 194.063 162.828 194.063C160.749 194.063 159.722 193.116 158.619 192.118C157.515 191.094 156.36 190.045 154.076 190.045C151.791 190.045 150.636 191.094 149.533 192.118C148.455 193.116 147.428 194.063 145.323 194.063C143.244 194.063 142.218 193.116 141.114 192.118C140.01 191.094 138.855 190.045 136.571 190.045C134.287 190.045 133.132 191.094 132.028 192.118C131.643 192.476 131.232 192.834 130.796 193.141V193.756C131.386 193.397 131.9 192.937 132.387 192.476C133.465 191.478 134.492 190.531 136.597 190.531C138.701 190.531 139.702 191.478 140.806 192.476C141.91 193.5 143.065 194.549 145.349 194.549C147.633 194.549 148.788 193.5 149.892 192.476C150.97 191.478 151.997 190.531 154.101 190.531C156.18 190.531 157.207 191.478 158.311 192.476C159.414 193.5 160.569 194.549 162.854 194.549C165.138 194.549 166.293 193.5 167.397 192.476C168.475 191.478 169.501 190.531 171.606 190.531C173.685 190.531 174.712 191.478 175.815 192.476C176.919 193.5 178.074 194.549 180.358 194.549C180.435 194.549 180.512 194.549 180.589 194.523V194.012C180.512 194.012 180.435 194.037 180.358 194.037C178.228 194.063 177.201 193.116 176.123 192.118Z" fill="#FCC97C"/>
<path d="M136.598 203.301C138.677 203.301 139.703 204.248 140.807 205.246C141.911 206.27 143.066 207.319 145.35 207.319C147.634 207.319 148.789 206.27 149.893 205.246C150.971 204.248 151.998 203.301 154.102 203.301C156.181 203.301 157.208 204.248 158.312 205.246C159.415 206.27 160.57 207.319 162.855 207.319C165.139 207.319 166.294 206.27 167.398 205.246C168.476 204.248 169.502 203.301 171.607 203.301C173.686 203.301 174.713 204.248 175.816 205.246C176.92 206.27 178.075 207.319 180.359 207.319C180.436 207.319 180.513 207.319 180.59 207.293V206.781C180.513 206.781 180.436 206.807 180.359 206.807C178.28 206.807 177.254 205.86 176.15 204.862C175.046 203.838 173.891 202.789 171.607 202.789C169.323 202.789 168.168 203.838 167.064 204.862C165.986 205.86 164.959 206.807 162.855 206.807C160.776 206.807 159.749 205.86 158.645 204.862C157.542 203.838 156.387 202.789 154.102 202.789C151.818 202.789 150.663 203.838 149.559 204.862C148.481 205.86 147.455 206.807 145.35 206.807C143.271 206.807 142.244 205.86 141.141 204.862C140.037 203.838 138.882 202.789 136.598 202.789C134.313 202.789 133.158 203.838 132.055 204.862C131.593 205.297 131.131 205.707 130.592 206.039V206.628C131.285 206.244 131.849 205.732 132.388 205.22C133.492 204.248 134.519 203.301 136.598 203.301Z" fill="#FCC97C"/>
<path d="M176.126 198.49C175.023 197.466 173.868 196.417 171.583 196.417C169.299 196.417 168.144 197.466 167.04 198.49C165.962 199.488 164.936 200.435 162.831 200.435C160.752 200.435 159.725 199.488 158.622 198.49C157.518 197.466 156.363 196.417 154.079 196.417C151.794 196.417 150.639 197.466 149.536 198.49C148.458 199.488 147.431 200.435 145.326 200.435C143.247 200.435 142.221 199.488 141.117 198.49C140.013 197.466 138.858 196.417 136.574 196.417C134.29 196.417 133.135 197.466 132.031 198.49C131.595 198.899 131.184 199.283 130.696 199.59V200.179C131.338 199.795 131.877 199.309 132.39 198.848C133.468 197.85 134.495 196.903 136.6 196.903C138.704 196.903 139.705 197.85 140.809 198.848C141.913 199.872 143.068 200.921 145.352 200.921C147.636 200.921 148.791 199.872 149.895 198.848C150.973 197.85 152 196.903 154.104 196.903C156.183 196.903 157.21 197.85 158.314 198.848C159.417 199.872 160.572 200.921 162.857 200.921C165.141 200.921 166.296 199.872 167.4 198.848C168.478 197.85 169.504 196.903 171.609 196.903C173.688 196.903 174.715 197.85 175.818 198.848C176.922 199.872 178.077 200.921 180.361 200.921C180.438 200.921 180.515 200.921 180.592 200.895V200.383C180.515 200.383 180.438 200.409 180.361 200.409C178.231 200.46 177.204 199.513 176.126 198.49Z" fill="#FCC97C"/>
<path d="M201.997 179.347C200.919 180.345 199.892 181.292 197.787 181.292C195.708 181.292 194.682 180.345 193.578 179.347C192.474 178.324 191.319 177.274 189.035 177.274C186.751 177.274 185.596 178.324 184.492 179.347C183.414 180.345 182.387 181.292 180.283 181.292C178.204 181.292 177.177 180.345 176.073 179.347C174.97 178.324 173.815 177.274 171.53 177.274C169.246 177.274 168.091 178.324 166.987 179.347C165.909 180.345 164.883 181.292 162.778 181.292C160.699 181.292 159.672 180.345 158.569 179.347C157.465 178.324 156.31 177.274 154.026 177.274C151.741 177.274 150.586 178.324 149.483 179.347C148.405 180.345 147.378 181.292 145.273 181.292C143.194 181.292 142.168 180.345 141.064 179.347C139.96 178.324 138.805 177.274 136.521 177.274C134.237 177.274 133.082 178.324 131.978 179.347C130.9 180.345 129.873 181.292 127.769 181.292C125.69 181.292 124.663 180.345 123.559 179.347C122.456 178.324 121.301 177.274 119.016 177.274C116.732 177.274 115.577 178.324 114.473 179.347C113.395 180.345 112.369 181.292 110.264 181.292C108.159 181.292 107.158 180.345 106.055 179.347C105.978 179.271 105.901 179.219 105.824 179.143L105.593 179.603C105.618 179.629 105.67 179.68 105.695 179.706C106.799 180.729 107.954 181.778 110.238 181.778C112.523 181.778 113.678 180.729 114.781 179.706C115.859 178.708 116.886 177.761 118.991 177.761C121.07 177.761 122.096 178.708 123.2 179.706C124.304 180.729 125.459 181.778 127.743 181.778C130.027 181.778 131.182 180.729 132.286 179.706C133.364 178.708 134.391 177.761 136.495 177.761C138.6 177.761 139.601 178.708 140.705 179.706C141.808 180.729 142.963 181.778 145.248 181.778C147.532 181.778 148.687 180.729 149.791 179.706C150.869 178.708 151.895 177.761 154 177.761C156.079 177.761 157.106 178.708 158.209 179.706C159.313 180.729 160.468 181.778 162.752 181.778C165.037 181.778 166.192 180.729 167.295 179.706C168.373 178.708 169.4 177.761 171.505 177.761C173.584 177.761 174.61 178.708 175.714 179.706C176.818 180.729 177.973 181.778 180.257 181.778C182.541 181.778 183.696 180.729 184.8 179.706C185.878 178.708 186.905 177.761 189.009 177.761C191.088 177.761 192.115 178.708 193.219 179.706C194.322 180.729 195.477 181.778 197.762 181.778C200.046 181.778 201.201 180.729 202.305 179.706C202.69 179.347 203.075 178.989 203.511 178.682L203.28 178.221C202.844 178.58 202.433 178.963 201.997 179.347Z" fill="#FCC97C"/>
<path d="M180.307 213.23C178.228 213.23 177.201 212.283 176.098 211.285C174.994 210.261 173.839 209.212 171.555 209.212C169.27 209.212 168.115 210.261 167.012 211.285C165.934 212.283 164.907 213.23 162.802 213.23C160.723 213.23 159.697 212.283 158.593 211.285C157.489 210.261 156.334 209.212 154.05 209.212C151.766 209.212 150.611 210.261 149.507 211.285C148.429 212.283 147.402 213.23 145.298 213.23C143.219 213.23 142.192 212.283 141.088 211.285C139.985 210.261 138.83 209.212 136.545 209.212C134.261 209.212 133.106 210.261 132.002 211.285C131.515 211.745 131.001 212.181 130.437 212.539V213.127C131.181 212.718 131.771 212.181 132.362 211.669C133.44 210.671 134.466 209.724 136.571 209.724C138.676 209.724 139.677 210.671 140.78 211.669C141.884 212.692 143.039 213.742 145.323 213.742C147.608 213.742 148.763 212.692 149.866 211.669C150.944 210.671 151.971 209.724 154.076 209.724C156.155 209.724 157.181 210.671 158.285 211.669C159.389 212.692 160.544 213.742 162.828 213.742C165.112 213.742 166.267 212.692 167.371 211.669C168.449 210.671 169.476 209.724 171.58 209.724C173.659 209.724 174.686 210.671 175.79 211.669C176.893 212.692 178.048 213.742 180.333 213.742C180.41 213.742 180.487 213.742 180.564 213.716V213.204C180.461 213.204 180.384 213.23 180.307 213.23Z" fill="#FCC97C"/>
<path d="M119.122 164.99C121.201 164.99 122.228 165.937 123.332 166.935C124.435 167.959 125.59 169.008 127.875 169.008C130.159 169.008 131.314 167.959 132.418 166.935C133.496 165.937 134.522 164.99 136.627 164.99C138.732 164.99 139.733 165.937 140.836 166.935C141.94 167.959 143.095 169.008 145.379 169.008C147.664 169.008 148.819 167.959 149.922 166.935C151 165.937 152.027 164.99 154.132 164.99C156.211 164.99 157.237 165.937 158.341 166.935C159.445 167.959 160.6 169.008 162.884 169.008C165.168 169.008 166.323 167.959 167.427 166.935C168.505 165.937 169.532 164.99 171.636 164.99C173.715 164.99 174.742 165.937 175.846 166.935C176.949 167.959 178.104 169.008 180.389 169.008C182.673 169.008 183.828 167.959 184.932 166.935C186.01 165.937 187.036 164.99 189.141 164.99C191.22 164.99 192.247 165.937 193.35 166.935C194.454 167.959 195.609 169.008 197.893 169.008C198.253 169.008 198.586 168.982 198.894 168.931L198.663 168.471C198.432 168.496 198.176 168.522 197.893 168.522C195.814 168.522 194.788 167.575 193.684 166.577C192.58 165.553 191.425 164.504 189.141 164.504C186.857 164.504 185.702 165.553 184.598 166.577C183.52 167.575 182.493 168.522 180.389 168.522C178.31 168.522 177.283 167.575 176.179 166.577C175.076 165.553 173.921 164.504 171.636 164.504C169.352 164.504 168.197 165.553 167.093 166.577C166.015 167.575 164.989 168.522 162.884 168.522C160.805 168.522 159.778 167.575 158.675 166.577C157.571 165.553 156.416 164.504 154.132 164.504C151.847 164.504 150.692 165.553 149.589 166.577C148.511 167.575 147.484 168.522 145.379 168.522C143.3 168.522 142.274 167.575 141.17 166.577C140.066 165.553 138.911 164.504 136.627 164.504C134.343 164.504 133.188 165.553 132.084 166.577C131.006 167.575 129.979 168.522 127.875 168.522C125.796 168.522 124.769 167.575 123.665 166.577C122.562 165.553 121.407 164.504 119.122 164.504C116.838 164.504 115.683 165.553 114.579 166.577C113.655 167.421 112.783 168.215 111.294 168.445L111.012 168.982C112.885 168.803 113.912 167.856 114.913 166.935C116.017 165.937 117.043 164.99 119.122 164.99Z" fill="#FCC97C"/>
<path d="M197.813 174.92C195.734 174.92 194.707 173.973 193.604 172.975C192.5 171.951 191.345 170.902 189.061 170.902C186.776 170.902 185.621 171.951 184.518 172.975C183.44 173.973 182.413 174.92 180.308 174.92C178.229 174.92 177.203 173.973 176.099 172.975C174.995 171.951 173.84 170.902 171.556 170.902C169.272 170.902 168.117 171.951 167.013 172.975C165.935 173.973 164.908 174.92 162.804 174.92C160.725 174.92 159.698 173.973 158.594 172.975C157.491 171.951 156.336 170.902 154.051 170.902C151.767 170.902 150.612 171.951 149.508 172.975C148.43 173.973 147.404 174.92 145.299 174.92C143.22 174.92 142.193 173.973 141.09 172.975C139.986 171.951 138.831 170.902 136.547 170.902C134.262 170.902 133.107 171.951 132.004 172.975C130.926 173.973 129.899 174.92 127.794 174.92C125.715 174.92 124.689 173.973 123.585 172.975C122.481 171.951 121.326 170.902 119.042 170.902C116.758 170.902 115.603 171.951 114.499 172.975C113.421 173.973 112.394 174.92 110.29 174.92C109.443 174.92 108.775 174.766 108.185 174.51L107.954 174.971C108.596 175.253 109.34 175.457 110.29 175.457C112.574 175.457 113.729 174.408 114.833 173.384C115.911 172.386 116.937 171.44 119.042 171.44C121.121 171.44 122.148 172.386 123.251 173.384C124.355 174.408 125.51 175.457 127.794 175.457C130.079 175.457 131.234 174.408 132.337 173.384C133.415 172.386 134.442 171.44 136.547 171.44C138.651 171.44 139.652 172.386 140.756 173.384C141.86 174.408 143.015 175.457 145.299 175.457C147.583 175.457 148.738 174.408 149.842 173.384C150.92 172.386 151.947 171.44 154.051 171.44C156.13 171.44 157.157 172.386 158.261 173.384C159.364 174.408 160.519 175.457 162.804 175.457C165.088 175.457 166.243 174.408 167.347 173.384C168.425 172.386 169.451 171.44 171.556 171.44C173.635 171.44 174.662 172.386 175.765 173.384C176.869 174.408 178.024 175.457 180.308 175.457C182.593 175.457 183.748 174.408 184.851 173.384C185.929 172.386 186.956 171.44 189.061 171.44C191.14 171.44 192.166 172.386 193.27 173.384C194.374 174.408 195.529 175.457 197.813 175.457C199.43 175.457 200.482 174.92 201.355 174.229L201.124 173.768C200.303 174.408 199.327 174.92 197.813 174.92Z" fill="#FCC97C"/>
<path d="M123.328 154.191C124.432 155.215 125.587 156.264 127.871 156.264C130.155 156.264 131.31 155.215 132.414 154.191C133.492 153.193 134.519 152.246 136.623 152.246C138.728 152.246 139.729 153.193 140.833 154.191C141.936 155.215 143.091 156.264 145.376 156.264C147.66 156.264 148.815 155.215 149.919 154.191C150.483 153.679 151.022 153.168 151.715 152.809H151.587L150.817 152.784C150.381 153.091 149.996 153.449 149.611 153.807C148.533 154.805 147.506 155.752 145.401 155.752C143.322 155.752 142.296 154.805 141.192 153.807C140.088 152.784 138.933 151.734 136.649 151.734C134.365 151.734 133.21 152.784 132.106 153.807C131.028 154.805 130.001 155.752 127.897 155.752C125.818 155.752 124.791 154.805 123.687 153.807C123.354 153.5 122.994 153.167 122.609 152.886C122.455 152.988 122.301 153.065 122.147 153.168C122.558 153.475 122.943 153.833 123.328 154.191Z" fill="#FCC97C"/>
<path d="M119.119 158.618C121.198 158.618 122.225 159.565 123.328 160.563C124.432 161.587 125.587 162.636 127.871 162.636C130.156 162.636 131.311 161.587 132.414 160.563C133.492 159.565 134.519 158.618 136.624 158.618C138.728 158.618 139.729 159.565 140.833 160.563C141.937 161.587 143.092 162.636 145.376 162.636C147.66 162.636 148.815 161.587 149.919 160.563C150.997 159.565 152.024 158.618 154.128 158.618C156.207 158.618 157.234 159.565 158.338 160.563C159.441 161.587 160.596 162.636 162.881 162.636C165.165 162.636 166.32 161.587 167.424 160.563C168.502 159.565 169.528 158.618 171.633 158.618C173.712 158.618 174.739 159.565 175.842 160.563C176.946 161.587 178.101 162.636 180.385 162.636C182.67 162.636 183.825 161.587 184.928 160.563C186.006 159.565 187.033 158.618 189.138 158.618C191.217 158.618 192.243 159.565 193.347 160.563C193.989 161.152 194.63 161.74 195.477 162.124C195.298 161.817 195.092 161.51 194.887 161.203C194.451 160.896 194.066 160.537 193.681 160.179C192.577 159.155 191.422 158.106 189.138 158.106C186.853 158.106 185.698 159.155 184.595 160.179C183.517 161.177 182.49 162.124 180.385 162.124C178.306 162.124 177.28 161.177 176.176 160.179C175.072 159.155 173.917 158.106 171.633 158.106C169.349 158.106 168.194 159.155 167.09 160.179C166.012 161.177 164.985 162.124 162.881 162.124C160.802 162.124 159.775 161.177 158.671 160.179C157.568 159.155 156.413 158.106 154.128 158.106C151.844 158.106 150.689 159.155 149.585 160.179C148.507 161.177 147.481 162.124 145.376 162.124C143.297 162.124 142.27 161.177 141.167 160.179C140.063 159.155 138.908 158.106 136.624 158.106C134.339 158.106 133.184 159.155 132.081 160.179C131.003 161.177 129.976 162.124 127.871 162.124C125.792 162.124 124.766 161.177 123.662 160.179C122.558 159.155 121.403 158.106 119.119 158.106C117.861 158.106 116.937 158.439 116.193 158.9C115.962 159.258 115.731 159.642 115.5 160.051C116.398 159.258 117.399 158.618 119.119 158.618Z" fill="#FCC97C"/>
<path d="M173.426 152.016L171.578 152.221C173.657 152.221 174.684 153.167 175.787 154.166C176.891 155.189 178.046 156.238 180.33 156.238C182.615 156.238 183.77 155.189 184.873 154.166C185.13 153.935 185.387 153.705 185.643 153.475C185.464 153.398 185.284 153.321 185.13 153.27C184.925 153.449 184.745 153.628 184.54 153.807C183.462 154.805 182.435 155.752 180.33 155.752C178.251 155.752 177.225 154.805 176.121 153.807C175.351 153.116 174.581 152.4 173.426 152.016Z" fill="#FCC97C"/>
<path d="M158.286 154.19C159.389 155.214 160.544 156.263 162.829 156.263C165.113 156.263 166.268 155.214 167.372 154.19C168.193 153.422 169.014 152.68 170.272 152.399L168.552 152.603C167.988 152.962 167.5 153.397 167.012 153.832C165.934 154.83 164.908 155.777 162.803 155.777C160.724 155.777 159.697 154.83 158.594 153.832C158.26 153.525 157.901 153.192 157.516 152.911L156.592 152.885C157.259 153.218 157.772 153.704 158.286 154.19Z" fill="#FCC97C"/>
<path d="M106.518 178.042L130.901 185.413V189.507L104.67 181.727L106.518 178.042Z" fill="#F69400"/>
<path d="M180.541 188.228L203.025 177.607L204.822 181.292L180.541 191.682V188.228Z" fill="#F69400"/>
<path d="M131.444 173.39L130.576 189.49L131.294 189.528L132.162 173.428L131.444 173.39Z" fill="#F69400"/>
<path d="M180.374 174.921L179.655 174.944L180.196 191.698L180.914 191.675L180.374 174.921Z" fill="#F69400"/>
<path d="M147.073 152.347V155.674C147.073 161.228 151.591 165.757 157.186 165.757C162.756 165.757 167.299 161.253 167.299 155.674V152.782C167.273 152.782 159.804 153.627 147.073 152.347Z" fill="#F69400"/>
<path d="M153.541 130.698L152.488 130.391C150.743 129.88 148.946 130.98 148.613 132.746L148.484 133.437C148.048 135.74 149.408 138.018 151.667 138.709L149.922 151.274L149.665 154.422C149.357 158.312 152.155 161.792 156.03 162.304C160.086 162.867 163.807 160.026 164.372 156.008L164.757 153.296L164.706 148.177C164.706 148.177 178.232 152.579 171.328 125.631C171.353 125.657 157.545 114.934 153.541 130.698Z" fill="#FEC2A0"/>
<path d="M165.524 139.706L165.268 139.117L167.809 138.093L166.346 134.076L166.936 133.871L168.604 138.452L165.524 139.706Z" fill="#D27563"/>
<path d="M173.43 124.633C173.43 124.633 175.842 126.833 172.711 131.901L171.479 126.066C171.453 126.066 172.839 125.221 173.43 124.633Z" fill="#392524"/>
<path d="M163.341 133.347C163.359 132.811 163.12 132.367 162.808 132.358C162.496 132.348 162.23 132.775 162.213 133.312C162.196 133.849 162.434 134.292 162.746 134.302C163.058 134.311 163.324 133.884 163.341 133.347Z" fill="#353535"/>
<path d="M170.532 133.574C170.549 133.037 170.31 132.594 169.998 132.584C169.687 132.575 169.42 133.002 169.403 133.539C169.386 134.075 169.625 134.519 169.936 134.528C170.248 134.538 170.515 134.111 170.532 133.574Z" fill="#353535"/>
<path d="M159.595 131.44L163.959 130.672C164.369 130.595 164.575 130.109 164.318 129.751L164.19 129.597C163.933 129.265 163.471 129.162 163.086 129.341L159.467 131.056C159.262 131.158 159.364 131.491 159.595 131.44Z" fill="#392524"/>
<path d="M173.25 131.568L169.451 130.749C169.092 130.672 168.938 130.237 169.169 129.93L169.272 129.802C169.503 129.52 169.913 129.443 170.247 129.597L173.353 131.235C173.558 131.337 173.455 131.593 173.25 131.568Z" fill="#392524"/>
<path d="M149.69 135.612L150.434 135.535C150.28 134.051 150.511 133.027 151.102 132.618C151.872 132.055 153.155 132.618 153.155 132.618L153.463 131.927C153.386 131.901 151.795 131.184 150.665 131.978C149.844 132.592 149.51 133.795 149.69 135.612Z" fill="#FB9A77"/>
<path d="M151.688 138.708L150.892 144.491C141.216 125.093 151.072 123.225 151.072 123.225C148.48 122.611 148.865 115.547 153.562 117.953C158.259 120.359 167.268 114.063 173.068 115.266C178.869 116.469 176.123 123.558 171.451 126.04C167.909 127.934 162.981 126.629 160.825 125.886C160.184 125.682 159.491 125.963 159.208 126.552L158.669 129.776C158.49 130.902 157.566 131.772 156.411 131.9L155.384 132.003C155.025 131.389 154.434 130.902 153.69 130.672L153.587 130.646L152.535 130.339C150.815 129.827 148.993 130.928 148.659 132.694L148.531 133.385C148.043 135.765 149.429 138.017 151.688 138.708Z" fill="#392524"/>
<path d="M167.011 142.444C165.985 142.265 163.777 141.83 162.058 141.113C161.775 140.985 161.493 141.267 161.647 141.548C162.417 143.084 164.368 146.001 167.191 142.981C167.371 142.802 167.268 142.495 167.011 142.444Z" fill="white"/>
<path d="M164.729 148.202C164.729 148.202 161.854 147.869 159.544 146.488C159.544 146.488 160.16 151.299 164.754 151.503L164.729 148.202Z" fill="#FB9A77"/>
<path d="M108.494 182.853L104.285 201.79C102.899 208.009 107.647 213.921 114.038 213.921H130.465L155.618 196.314L144.735 181.445L131.26 189.506L108.494 182.853Z" fill="#FEC2A0"/>
<path d="M202.818 182.162L206.437 202.072C207.541 208.163 202.87 213.767 196.684 213.818L180.565 213.946L153.051 194.778L163.343 180.294L180.925 191.656L202.818 182.162Z" fill="#FEC2A0"/>
<path d="M164.909 181.317L165.602 191.861C165.782 194.42 164.062 196.698 161.572 197.286L157.902 198.156L155.387 196.39L164.909 181.317Z" fill="#FB9A77"/>
<path d="M162.472 191.297L148.715 187.97L152.437 172.692C152.591 172.078 153.207 171.694 153.848 171.848L165.347 174.637C165.963 174.791 166.348 175.405 166.194 176.045L162.472 191.297Z" fill="#033A2F"/>
<path d="M141.295 183.979C141.295 183.979 145.915 179.654 150.817 179.321L150.458 182.06C150.355 182.751 150.971 183.365 151.664 183.262L164.164 181.727C164.164 181.727 165.242 183.774 164.164 185.822C164.164 185.822 164.934 186.794 163.959 188.841C163.959 188.841 164.831 191.349 163.753 191.708C163.753 191.708 164.087 192.936 162.983 193.601L148.738 198.848L141.295 183.979Z" fill="#FEC2A0"/>
<path d="M164.144 185.49L156.499 186.41L156.579 187.071L164.224 186.15L164.144 185.49Z" fill="#FB9A77"/>
<path d="M163.901 188.515L158.428 189.219L158.513 189.878L163.986 189.175L163.901 188.515Z" fill="#FB9A77"/>
<path d="M163.693 191.391L159.176 192.358L159.316 193.008L163.833 192.041L163.693 191.391Z" fill="#FB9A77"/>
<path d="M131.04 189.174L117.576 198.331L118.025 198.986L131.489 189.829L131.04 189.174Z" fill="#FB9A77"/>
<path d="M181.064 191.3L180.7 192.005L194.395 199.027L194.759 198.322L181.064 191.3Z" fill="#FB9A77"/>
<path d="M202.82 182.162L183.724 193.115L180.9 191.656L202.82 182.162Z" fill="#FB9A77"/>
<path d="M108.494 182.853L131.26 189.533L128.103 191.682L108.494 182.853Z" fill="#FB9A77"/>
<path d="M277.354 214.893C277.354 215.354 276.969 215.738 276.507 215.738H31.3646C30.9026 215.738 30.5176 215.354 30.5176 214.893C30.5176 214.433 30.9026 214.049 31.3646 214.049H276.507C276.969 214.049 277.354 214.433 277.354 214.893Z" fill="#033A2F"/>
<mask id="path-66-inside-1_101_2132" fill="white">
<path fill-rule="evenodd" clip-rule="evenodd" d="M211.392 70.3914C211.761 69.2332 211.946 68.6541 212.421 68.4081C212.895 68.1621 213.475 68.3453 214.634 68.7116L254.335 81.2596C255.494 81.6259 256.073 81.8091 256.319 82.2827C256.564 82.7563 256.38 83.3354 256.011 84.4935L245.997 115.913C245.977 115.907 245.956 115.9 245.936 115.893C244.315 115.381 242.584 116.277 242.068 117.895C241.553 119.512 242.448 121.239 244.069 121.751C244.089 121.757 244.11 121.764 244.13 121.77L238.91 138.149C238.541 139.307 238.357 139.886 237.882 140.132C237.407 140.378 236.828 140.195 235.669 139.828L195.968 127.281C194.809 126.914 194.229 126.731 193.984 126.257C193.738 125.784 193.923 125.205 194.292 124.047L199.517 107.652L199.545 107.661C201.165 108.173 202.897 107.277 203.412 105.66C203.928 104.042 203.032 102.316 201.412 101.804L201.384 101.795L211.392 70.3914Z"/>
</mask>
<path fill-rule="evenodd" clip-rule="evenodd" d="M211.392 70.3914C211.761 69.2332 211.946 68.6541 212.421 68.4081C212.895 68.1621 213.475 68.3453 214.634 68.7116L254.335 81.2596C255.494 81.6259 256.073 81.8091 256.319 82.2827C256.564 82.7563 256.38 83.3354 256.011 84.4935L245.997 115.913C245.977 115.907 245.956 115.9 245.936 115.893C244.315 115.381 242.584 116.277 242.068 117.895C241.553 119.512 242.448 121.239 244.069 121.751C244.089 121.757 244.11 121.764 244.13 121.77L238.91 138.149C238.541 139.307 238.357 139.886 237.882 140.132C237.407 140.378 236.828 140.195 235.669 139.828L195.968 127.281C194.809 126.914 194.229 126.731 193.984 126.257C193.738 125.784 193.923 125.205 194.292 124.047L199.517 107.652L199.545 107.661C201.165 108.173 202.897 107.277 203.412 105.66C203.928 104.042 203.032 102.316 201.412 101.804L201.384 101.795L211.392 70.3914Z" fill="#31A683"/>
<path d="M212.421 68.4081L212.893 69.3189L212.421 68.4081ZM211.392 70.3914L210.414 70.0813L211.392 70.3914ZM214.634 68.7116L214.323 69.69L214.634 68.7116ZM254.335 81.2596L254.646 80.2812L254.335 81.2596ZM256.319 82.2827L257.231 81.8099L256.319 82.2827ZM256.011 84.4935L255.032 84.1834L256.011 84.4935ZM245.997 115.913L245.666 116.885L246.658 117.221L246.976 116.224L245.997 115.913ZM245.936 115.893L246.247 114.915L246.247 114.915L245.936 115.893ZM242.068 117.895L243.047 118.205L242.068 117.895ZM244.069 121.751L244.38 120.773L244.38 120.773L244.069 121.751ZM244.13 121.77L245.109 122.08L245.428 121.081L244.421 120.785L244.13 121.77ZM238.91 138.149L239.889 138.459L238.91 138.149ZM235.669 139.828L235.98 138.85L235.669 139.828ZM195.968 127.281L196.279 126.302L196.279 126.302L195.968 127.281ZM193.984 126.257L194.896 125.785L193.984 126.257ZM194.292 124.047L195.271 124.357L194.292 124.047ZM199.517 107.652L199.833 106.675L198.851 106.36L198.538 107.342L199.517 107.652ZM199.545 107.661L199.229 108.638L199.234 108.64L199.545 107.661ZM201.412 101.804L201.723 100.825L201.718 100.824L201.412 101.804ZM201.384 101.795L200.405 101.485L200.092 102.468L201.077 102.775L201.384 101.795ZM211.949 67.4973C211.432 67.7651 211.139 68.1959 210.938 68.62C210.75 69.0172 210.589 69.5298 210.414 70.0813L212.371 70.7015C212.564 70.0947 212.68 69.7387 212.795 69.4953C212.898 69.2789 212.935 69.2971 212.893 69.3189L211.949 67.4973ZM214.945 67.7332C214.393 67.5588 213.882 67.3948 213.449 67.3193C212.986 67.2388 212.466 67.2295 211.949 67.4973L212.893 69.3189C212.851 69.3407 212.857 69.3001 213.093 69.3412C213.358 69.3874 213.716 69.4981 214.323 69.69L214.945 67.7332ZM254.646 80.2812L214.945 67.7332L214.323 69.69L254.024 82.238L254.646 80.2812ZM257.231 81.8099C256.964 81.2937 256.533 81.0021 256.108 80.8025C255.711 80.6155 255.198 80.4556 254.646 80.2812L254.024 82.238C254.631 82.4299 254.987 82.5448 255.231 82.6594C255.447 82.7613 255.429 82.798 255.407 82.7554L257.231 81.8099ZM256.989 84.8036C257.165 84.2522 257.33 83.7409 257.407 83.3084C257.488 82.8466 257.499 82.3262 257.231 81.8099L255.407 82.7554C255.384 82.7128 255.425 82.7188 255.384 82.9544C255.337 83.2194 255.225 83.5767 255.032 84.1834L256.989 84.8036ZM246.976 116.224L256.989 84.8036L255.032 84.1834L245.018 115.603L246.976 116.224ZM245.625 116.872C245.638 116.876 245.652 116.881 245.666 116.885L246.328 114.942C246.301 114.933 246.274 114.924 246.247 114.915L245.625 116.872ZM243.047 118.205C243.39 117.128 244.544 116.53 245.625 116.872L246.247 114.915C244.087 114.232 241.777 115.426 241.089 117.585L243.047 118.205ZM244.38 120.773C243.299 120.431 242.704 119.281 243.047 118.205L241.089 117.585C240.401 119.744 241.597 122.047 243.758 122.729L244.38 120.773ZM244.421 120.785C244.407 120.781 244.394 120.777 244.38 120.773L243.758 122.729C243.785 122.738 243.812 122.746 243.84 122.754L244.421 120.785ZM239.889 138.459L245.109 122.08L243.152 121.46L237.932 137.839L239.889 138.459ZM238.354 141.043C238.871 140.775 239.163 140.344 239.364 139.92C239.552 139.523 239.713 139.01 239.889 138.459L237.932 137.839C237.738 138.445 237.623 138.801 237.507 139.045C237.405 139.261 237.368 139.243 237.41 139.221L238.354 141.043ZM235.358 140.807C235.909 140.981 236.421 141.145 236.854 141.221C237.316 141.301 237.837 141.311 238.354 141.043L237.41 139.221C237.452 139.199 237.446 139.24 237.21 139.199C236.944 139.153 236.587 139.042 235.98 138.85L235.358 140.807ZM195.657 128.259L235.358 140.807L235.98 138.85L196.279 126.302L195.657 128.259ZM193.072 126.73C193.339 127.246 193.77 127.538 194.194 127.738C194.592 127.925 195.105 128.085 195.657 128.259L196.279 126.302C195.672 126.11 195.315 125.995 195.072 125.881C194.855 125.779 194.874 125.742 194.896 125.785L193.072 126.73ZM193.313 123.736C193.138 124.288 192.972 124.799 192.896 125.232C192.814 125.694 192.804 126.214 193.072 126.73L194.896 125.785C194.918 125.827 194.877 125.821 194.919 125.586C194.966 125.321 195.077 124.963 195.271 124.357L193.313 123.736ZM198.538 107.342L193.313 123.736L195.271 124.357L200.496 107.962L198.538 107.342ZM199.861 106.684L199.833 106.675L199.202 108.629L199.229 108.638L199.861 106.684ZM202.434 105.35C202.091 106.426 200.937 107.024 199.856 106.683L199.234 108.64C201.394 109.322 203.703 108.128 204.391 105.97L202.434 105.35ZM201.101 102.782C202.181 103.123 202.777 104.274 202.434 105.35L204.391 105.97C205.079 103.811 203.883 101.508 201.723 100.825L201.101 102.782ZM201.077 102.775L201.105 102.783L201.718 100.824L201.69 100.815L201.077 102.775ZM210.414 70.0813L200.405 101.485L202.363 102.105L212.371 70.7015L210.414 70.0813Z" fill="#1C7C5C" mask="url(#path-66-inside-1_101_2132)"/>
<line x1="0.256667" y1="-0.256667" x2="35.4104" y2="-0.256667" transform="matrix(0.953401 0.301705 -0.303319 0.952889 205.854 107.291)" stroke="white" stroke-width="0.513333" stroke-linecap="round" stroke-dasharray="1.03 1.03"/>
<circle cx="234.464" cy="75.1652" r="8.72667" transform="rotate(17.6085 234.464 75.1652)" fill="#1C7C5C" stroke="#1C7C5C" stroke-width="1.02667"/>
<rect x="213.714" y="82.8513" width="35.42" height="3.08" rx="1.54" transform="rotate(17.6085 213.714 82.8513)" fill="white"/>
<rect x="213.699" y="93.0793" width="29.0033" height="3.08" rx="1.54" transform="rotate(17.6085 213.699 93.0793)" fill="white"/>
<rect x="205.78" y="118.033" width="28.2333" height="3.08" rx="1.54" transform="rotate(17.6085 205.78 118.033)" fill="white"/>
<mask id="path-73-outside-2_101_2132" maskUnits="userSpaceOnUse" x="46.8198" y="33.966" width="76.7191" height="84.5776" fill="black">
<rect fill="white" x="46.8198" y="33.966" width="76.7191" height="84.5776"/>
<path fill-rule="evenodd" clip-rule="evenodd" d="M50.5938 59.1438C50.0621 57.9649 49.7962 57.3754 49.9977 56.845C50.1992 56.3146 50.7894 56.0503 51.9698 55.5218L92.3896 37.424C93.5699 36.8955 94.1601 36.6312 94.692 36.8333C95.2239 37.0354 95.4898 37.6248 96.0215 38.8037L110.445 70.7811C110.422 70.7905 110.4 70.8002 110.378 70.8102C108.728 71.5489 107.993 73.4828 108.735 75.1297C109.478 76.7767 111.418 77.5129 113.068 76.7743C113.09 76.7643 113.112 76.7541 113.134 76.7437L120.663 93.4363L120.663 93.4363C121.195 94.6152 121.461 95.2047 121.259 95.7351C121.058 96.2655 120.467 96.5298 119.287 97.0583L78.8673 115.156C77.6869 115.685 77.0968 115.949 76.5649 115.747C76.033 115.545 75.7671 114.955 75.2354 113.776L67.7121 97.0967L67.7347 97.0867C69.3844 96.348 70.1197 94.4141 69.3768 92.7672C68.634 91.1203 66.6944 90.384 65.0446 91.1226L65.0222 91.1328L50.5938 59.1438Z"/>
</mask>
<path fill-rule="evenodd" clip-rule="evenodd" d="M50.5938 59.1438C50.0621 57.9649 49.7962 57.3754 49.9977 56.845C50.1992 56.3146 50.7894 56.0503 51.9698 55.5218L92.3896 37.424C93.5699 36.8955 94.1601 36.6312 94.692 36.8333C95.2239 37.0354 95.4898 37.6248 96.0215 38.8037L110.445 70.7811C110.422 70.7905 110.4 70.8002 110.378 70.8102C108.728 71.5489 107.993 73.4828 108.735 75.1297C109.478 76.7767 111.418 77.5129 113.068 76.7743C113.09 76.7643 113.112 76.7541 113.134 76.7437L120.663 93.4363L120.663 93.4363C121.195 94.6152 121.461 95.2047 121.259 95.7351C121.058 96.2655 120.467 96.5298 119.287 97.0583L78.8673 115.156C77.6869 115.685 77.0968 115.949 76.5649 115.747C76.033 115.545 75.7671 114.955 75.2354 113.776L67.7121 97.0967L67.7347 97.0867C69.3844 96.348 70.1197 94.4141 69.3768 92.7672C68.634 91.1203 66.6944 90.384 65.0446 91.1226L65.0222 91.1328L50.5938 59.1438Z" fill="#FFBA53"/>
<path d="M49.9977 56.845L49.0369 56.48L49.9977 56.845ZM50.5938 59.1438L51.5306 58.7238L50.5938 59.1438ZM51.9698 55.5218L52.3914 56.4579L51.9698 55.5218ZM92.3896 37.424L92.8112 38.3601L92.3896 37.424ZM94.692 36.8333L95.0562 35.8746L95.0562 35.8746L94.692 36.8333ZM96.0215 38.8037L96.9583 38.3837L96.9583 38.3837L96.0215 38.8037ZM110.445 70.7811L110.846 71.7261L111.813 71.3181L111.381 70.361L110.445 70.7811ZM110.378 70.8102L109.956 69.8741L109.956 69.8741L110.378 70.8102ZM108.735 75.1297L107.799 75.5498L108.735 75.1297ZM113.068 76.7743L112.646 75.8381L112.646 75.8382L113.068 76.7743ZM113.134 76.7437L114.071 76.3236L113.64 75.3675L112.692 75.817L113.134 76.7437ZM120.663 93.4363L121.6 93.0165L121.6 93.0162L120.663 93.4363ZM120.663 93.4363L119.726 93.8561L119.726 93.8564L120.663 93.4363ZM121.259 95.7351L122.22 96.1001L122.22 96.1001L121.259 95.7351ZM119.287 97.0583L119.709 97.9944L119.287 97.0583ZM78.8673 115.156L78.4457 114.22L78.4457 114.22L78.8673 115.156ZM76.5649 115.747L76.2007 116.706L76.5649 115.747ZM75.2354 113.776L74.2986 114.196L75.2354 113.776ZM67.7121 97.0967L67.2941 96.159L66.3514 96.5768L66.7753 97.5168L67.7121 97.0967ZM67.7347 97.0867L68.1527 98.0244L68.1563 98.0228L67.7347 97.0867ZM69.3768 92.7672L70.3136 92.3471L69.3768 92.7672ZM65.0446 91.1226L64.623 90.1865L64.6195 90.1881L65.0446 91.1226ZM65.0222 91.1328L64.0854 91.5528L64.5088 92.4917L65.4472 92.0673L65.0222 91.1328ZM49.0369 56.48C48.8245 57.0393 48.8955 57.5718 49.0361 58.0428C49.1682 58.4854 49.4031 59.0009 49.657 59.5639L51.5306 58.7238C51.2528 58.1078 51.0889 57.7392 51.0055 57.4596C50.9673 57.3315 50.9591 57.2623 50.958 57.2299C50.9578 57.2224 50.9579 57.2173 50.9581 57.2142C50.9583 57.2112 50.9585 57.2098 50.9585 57.2096C50.9586 57.2095 50.9585 57.2098 50.9584 57.2104C50.9582 57.2109 50.9582 57.2109 50.9585 57.21L49.0369 56.48ZM51.5482 54.5857C50.9845 54.8381 50.4665 55.0676 50.074 55.3108C49.6561 55.5697 49.2494 55.9207 49.0369 56.48L50.9585 57.21C50.9589 57.2091 50.9589 57.2091 50.9586 57.2096C50.9584 57.2101 50.9582 57.2104 50.9583 57.2103C50.9584 57.2101 50.9592 57.2089 50.961 57.2066C50.9629 57.2042 50.9662 57.2003 50.9713 57.1948C50.9937 57.1713 51.0457 57.125 51.1594 57.0545C51.4074 56.9009 51.7747 56.734 52.3914 56.4579L51.5482 54.5857ZM91.968 36.4879L51.5482 54.5857L52.3914 56.4579L92.8112 38.3601L91.968 36.4879ZM95.0562 35.8746C94.4959 35.6617 93.9628 35.7316 93.491 35.871C93.0478 36.002 92.5317 36.2355 91.968 36.4879L92.8112 38.3601C93.4278 38.084 93.797 37.9211 94.077 37.8383C94.2053 37.8004 94.2747 37.7924 94.3073 37.7914C94.3149 37.7911 94.32 37.7913 94.3231 37.7915C94.3262 37.7916 94.3276 37.7919 94.3279 37.7919C94.3281 37.7919 94.3278 37.7919 94.3273 37.7918C94.3268 37.7916 94.3269 37.7916 94.3278 37.792L95.0562 35.8746ZM96.9583 38.3837C96.7044 37.8207 96.4735 37.3034 96.229 36.9112C95.9688 36.4937 95.6165 36.0875 95.0562 35.8746L94.3278 37.792C94.3287 37.7923 94.3288 37.7924 94.3284 37.7922C94.3279 37.792 94.3277 37.7918 94.3278 37.7919C94.328 37.792 94.3293 37.7928 94.3317 37.7947C94.3341 37.7966 94.3381 37.7999 94.3436 37.8051C94.3673 37.8275 94.4138 37.8796 94.4846 37.9932C94.639 38.241 94.8069 38.6079 95.0847 39.2238L96.9583 38.3837ZM111.381 70.361L96.9583 38.3837L95.0847 39.2238L109.508 71.2011L111.381 70.361ZM110.799 71.7463C110.815 71.7394 110.83 71.7327 110.846 71.7261L110.044 69.836C110.014 69.8483 109.985 69.861 109.956 69.8741L110.799 71.7463ZM109.672 74.7097C109.163 73.5802 109.667 72.2534 110.799 71.7463L109.956 69.8741C107.789 70.8444 106.822 73.3853 107.799 75.5498L109.672 74.7097ZM112.646 75.8382C111.513 76.3454 110.182 75.8395 109.672 74.7097L107.799 75.5498C108.775 77.7138 111.323 78.6805 113.489 77.7104L112.646 75.8382ZM112.692 75.817C112.677 75.8242 112.662 75.8312 112.646 75.8381L113.489 77.7104C113.518 77.6974 113.547 77.684 113.576 77.6704L112.692 75.817ZM121.6 93.0162L114.071 76.3236L112.197 77.1638L119.726 93.8564L121.6 93.0162ZM121.6 93.0165L121.6 93.0165L119.726 93.8561L119.726 93.8561L121.6 93.0165ZM122.22 96.1001C122.432 95.5408 122.361 95.0083 122.221 94.5373C122.089 94.0948 121.854 93.5793 121.6 93.0163L119.726 93.8564C120.004 94.4723 120.168 94.841 120.251 95.1205C120.29 95.2486 120.298 95.3178 120.299 95.3502C120.299 95.3578 120.299 95.3629 120.299 95.3659C120.299 95.3689 120.298 95.3703 120.298 95.3705C120.298 95.3706 120.298 95.3703 120.299 95.3697C120.299 95.3692 120.299 95.3693 120.298 95.3701L122.22 96.1001ZM119.709 97.9944C120.272 97.742 120.79 97.5125 121.183 97.2693C121.601 97.0104 122.007 96.6594 122.22 96.1001L120.298 95.3701C120.298 95.371 120.298 95.371 120.298 95.3705C120.298 95.37 120.299 95.3697 120.299 95.3698C120.298 95.37 120.298 95.3712 120.296 95.3735C120.294 95.3759 120.291 95.3798 120.286 95.3853C120.263 95.4088 120.211 95.4552 120.097 95.5256C119.85 95.6792 119.482 95.8461 118.865 96.1222L119.709 97.9944ZM79.2889 116.092L119.709 97.9944L118.865 96.1222L78.4457 114.22L79.2889 116.092ZM76.2007 116.706C76.761 116.918 77.2941 116.849 77.7659 116.709C78.2091 116.578 78.7252 116.345 79.2889 116.092L78.4457 114.22C77.829 114.496 77.4599 114.659 77.1799 114.742C77.0516 114.78 76.9822 114.788 76.9496 114.789C76.942 114.789 76.9368 114.789 76.9338 114.789C76.9307 114.788 76.9293 114.788 76.929 114.788C76.9288 114.788 76.9291 114.788 76.9296 114.788C76.9301 114.788 76.93 114.788 76.9291 114.788L76.2007 116.706ZM74.2986 114.196C74.5525 114.759 74.7834 115.277 75.0279 115.669C75.2881 116.086 75.6403 116.493 76.2007 116.706L76.9291 114.788C76.9281 114.788 76.9281 114.788 76.9285 114.788C76.929 114.788 76.9292 114.788 76.929 114.788C76.9288 114.788 76.9276 114.787 76.9252 114.785C76.9228 114.783 76.9188 114.78 76.9133 114.775C76.8896 114.753 76.843 114.7 76.7723 114.587C76.6178 114.339 76.45 113.972 76.1722 113.356L74.2986 114.196ZM66.7753 97.5168L74.2986 114.196L76.1722 113.356L68.6489 96.6766L66.7753 97.5168ZM67.3166 96.149L67.2941 96.159L68.1302 98.0344L68.1527 98.0244L67.3166 96.149ZM68.44 93.1873C68.9494 94.3167 68.4456 95.6435 67.313 96.1506L68.1563 98.0228C70.3233 97.0525 71.2899 94.5116 70.3136 92.3471L68.44 93.1873ZM65.4662 92.0587C66.5991 91.5515 67.9304 92.0574 68.44 93.1873L70.3136 92.3471C69.3375 90.1831 66.7896 89.2164 64.623 90.1865L65.4662 92.0587ZM65.4472 92.0673L65.4696 92.0572L64.6195 90.1881L64.5971 90.1982L65.4472 92.0673ZM49.657 59.5639L64.0854 91.5528L65.959 90.7127L51.5306 58.7238L49.657 59.5639Z" fill="#F69400" mask="url(#path-73-outside-2_101_2132)"/>
<line x1="0.273079" y1="-0.273079" x2="37.6662" y2="-0.273079" transform="matrix(0.912578 -0.408902 0.410905 0.911678 72.4727 92.332)" stroke="white" stroke-width="0.546158" stroke-linecap="round" stroke-dasharray="1.09 1.09"/>
<circle cx="72.1532" cy="46.5838" r="9.25186" transform="rotate(-24.1987 72.1532 46.5838)" fill="#F69400" stroke="#F69400" stroke-width="1.02667"/>
<rect x="61.1484" y="67.397" width="37.6849" height="3.27695" rx="1.63847" transform="rotate(-24.1987 61.1484 67.397)" fill="white"/>
<rect x="68.3896" y="75.519" width="30.8579" height="3.27695" rx="1.63847" transform="rotate(-24.1987 68.3896 75.519)" fill="white"/>
<rect x="79.8076" y="100.926" width="30.0387" height="3.27695" rx="1.63847" transform="rotate(-24.1987 79.8076 100.926)" fill="white"/>
</svg>
